<svg width="32" height="32" viewBox="0 0 32 32" fill="none" xmlns="http://www.w3.org/2000/svg">
<path d="M24.9 10.0366C24.8852 13.9199 24.4495 17.7907 23.6 21.5841C23.0091 24.3523 22.7075 27.1721 22.7 30.0001H9.2C9.19247 27.1721 8.89092 24.3523 8.3 21.5841C7.45055 17.7907 7.01477 13.9199 7 10.0366" fill="url(#paint0_linear_20_488)"/>
<path d="M24.9 10.0366C24.8852 13.9199 24.4495 17.7907 23.6 21.5841C23.0091 24.3523 22.7075 27.1721 22.7 30.0001H9.2C9.19247 27.1721 8.89092 24.3523 8.3 21.5841C7.45055 17.7907 7.01477 13.9199 7 10.0366" stroke="black" stroke-width="2" stroke-linecap="round" stroke-linejoin="round"/>
<path d="M24.9 9.84079C24.919 10.5273 24.8855 11.2142 24.8 11.8959H19.9V18.1589C19.9 18.678 19.6893 19.1758 19.3142 19.5429C18.9391 19.9099 18.4304 20.1161 17.9 20.1161C17.3696 20.1161 16.8609 19.9099 16.4858 19.5429C16.1107 19.1758 15.9 18.678 15.9 18.1589V11.798H7.10001C7.10001 11.2108 7 10.428 7 9.74293C7 8.80858 7.37928 7.9125 8.05441 7.25182C8.72954 6.59113 9.64523 6.21997 10.6 6.21997H11.1C11.5315 4.95005 12.3735 3.85201 13.4989 3.09167C14.6243 2.33134 15.9719 1.95001 17.3383 2.00526C18.7047 2.06051 20.0156 2.54935 21.073 3.39796C22.1305 4.24656 22.877 5.40884 23.2 6.70927C23.7484 7.02975 24.1967 7.49098 24.4964 8.04298C24.796 8.59498 24.9356 9.2167 24.9 9.84079Z" fill="white" stroke="black" stroke-width="2" stroke-linecap="round" stroke-linejoin="round"/>
<defs>
<linearGradient id="paint0_linear_20_488" x1="24.9" y1="30" x2="5.05474" y2="12.2061" gradientUnits="userSpaceOnUse">
<stop stop-color="#FFD15C"/>
<stop offset="1" stop-color="#F3AF00"/>
</linearGradient>
</defs>
</svg>
