<svg width="32" height="32" viewBox="0 0 32 32" fill="none" xmlns="http://www.w3.org/2000/svg">
<path d="M4.90283 23H27.5028V24.5C27.5028 25.5609 27.0814 26.5783 26.3312 27.3284C25.5811 28.0786 24.5637 28.5 23.5028 28.5H8.90283C7.84197 28.5 6.82455 28.0786 6.0744 27.3284C5.32426 26.5783 4.90283 25.5609 4.90283 24.5V23Z" fill="url(#paint0_linear_20_676)" stroke="black" stroke-width="2" stroke-linecap="round" stroke-linejoin="round"/>
<path d="M24.8028 16.9H27.4028C27.8051 16.8866 28.206 16.9543 28.5816 17.099C28.9572 17.2437 29.2998 17.4626 29.5891 17.7425C29.8783 18.0224 30.1082 18.3577 30.2652 18.7284C30.4222 19.099 30.503 19.4975 30.5028 19.9C30.5028 20.7222 30.1762 21.5106 29.5948 22.092C29.0134 22.6734 28.225 23 27.4028 23H5.00276C4.60024 23.0002 4.20181 22.9194 3.83116 22.7625C3.46051 22.6055 3.12522 22.3755 2.84529 22.0862C2.56537 21.797 2.34651 21.4544 2.20177 21.0788C2.05702 20.7032 1.98935 20.3023 2.00276 19.9C1.98879 19.5023 2.05686 19.1059 2.20268 18.7356C2.3485 18.3653 2.56898 18.029 2.85039 17.7476C3.1318 17.4662 3.4681 17.2457 3.8384 17.0999C4.20869 16.9541 4.60503 16.886 5.00276 16.9H13.8028" fill="url(#paint1_linear_20_676)"/>
<path d="M24.8028 16.9H27.4028C27.8051 16.8866 28.206 16.9543 28.5816 17.099C28.9572 17.2437 29.2998 17.4626 29.5891 17.7425C29.8783 18.0224 30.1082 18.3577 30.2652 18.7284C30.4222 19.099 30.503 19.4975 30.5028 19.9C30.5028 20.7222 30.1762 21.5106 29.5948 22.092C29.0134 22.6734 28.225 23 27.4028 23H5.00276C4.60024 23.0002 4.20181 22.9194 3.83116 22.7625C3.46051 22.6055 3.12522 22.3755 2.84529 22.0862C2.56537 21.797 2.34651 21.4544 2.20177 21.0788C2.05702 20.7032 1.98935 20.3023 2.00276 19.9C1.98879 19.5023 2.05686 19.1059 2.20268 18.7356C2.3485 18.3653 2.56898 18.029 2.85039 17.7476C3.1318 17.4662 3.4681 17.2457 3.8384 17.0999C4.20869 16.9541 4.60503 16.886 5.00276 16.9H13.8028" stroke="black" stroke-width="2" stroke-linecap="round" stroke-linejoin="round"/>
<path d="M30.5026 14.9C30.4951 15.4275 30.2795 15.9307 29.9027 16.3C29.7273 16.4963 29.5111 16.6517 29.2692 16.7554C29.0273 16.8591 28.7657 16.9084 28.5026 16.9H23.3027L19.9027 20.8L16.5026 16.9H3.90266C3.6445 16.9004 3.38897 16.8481 3.15168 16.7464C2.91439 16.6448 2.7003 16.4958 2.5225 16.3086C2.3447 16.1215 2.20691 15.9 2.11753 15.6579C2.02815 15.4157 1.98905 15.1578 2.00263 14.9C1.98905 14.6422 2.02815 14.3843 2.11753 14.1422C2.20691 13.9 2.3447 13.6785 2.5225 13.4914C2.7003 13.3042 2.91439 13.1553 3.15168 13.0536C3.38897 12.9519 3.6445 12.8996 3.90266 12.9H28.5026C29.0331 12.9 29.5418 13.1107 29.9169 13.4858C30.292 13.8609 30.5026 14.3696 30.5026 14.9Z" fill="white" stroke="black" stroke-width="2" stroke-linecap="round" stroke-linejoin="round"/>
<path d="M13.5028 4H19.0028C21.2837 4 23.4711 4.90606 25.0839 6.51888C26.6967 8.13169 27.6028 10.3191 27.6028 12.6H4.90283C4.90283 10.3191 5.80888 8.13169 7.42169 6.51888C9.0345 4.90606 11.2219 4 13.5028 4Z" fill="url(#paint2_linear_20_676)" stroke="black" stroke-width="2" stroke-linecap="round" stroke-linejoin="round"/>
<path d="M10.6025 8.5L11.8026 9.8" stroke="black" stroke-width="2" stroke-linecap="round" stroke-linejoin="round"/>
<path d="M21.4028 8L22.7028 9.39999" stroke="black" stroke-width="2" stroke-linecap="round" stroke-linejoin="round"/>
<path d="M15.4028 8.59999L16.8028 7.29999" stroke="black" stroke-width="2" stroke-linecap="round" stroke-linejoin="round"/>
<defs>
<linearGradient id="paint0_linear_20_676" x1="4.98142" y1="23.8554" x2="7.94108" y2="34.1358" gradientUnits="userSpaceOnUse">
<stop stop-color="#FFA654"/>
<stop offset="1" stop-color="#F26702"/>
</linearGradient>
<linearGradient id="paint1_linear_20_676" x1="30.5028" y1="23" x2="28.0047" y2="11.3312" gradientUnits="userSpaceOnUse">
<stop stop-color="#FFD15C"/>
<stop offset="1" stop-color="#F3AF00"/>
</linearGradient>
<linearGradient id="paint2_linear_20_676" x1="4.98177" y1="5.33752" x2="11.4783" y2="19.833" gradientUnits="userSpaceOnUse">
<stop stop-color="#FFA654"/>
<stop offset="1" stop-color="#F26702"/>
</linearGradient>
</defs>
</svg>
