<svg width="32" height="32" viewBox="0 0 32 32" fill="none" xmlns="http://www.w3.org/2000/svg">
<path d="M28.9 17.2H4C3.44772 17.2 3 17.6477 3 18.2V21.75C3 22.3023 3.44772 22.75 4 22.75H28.9C29.4523 22.75 29.9 22.3023 29.9 21.75V18.2C29.9 17.6477 29.4523 17.2 28.9 17.2Z" fill="url(#paint0_linear_20_28)" stroke="black" stroke-width="2" stroke-linecap="round" stroke-linejoin="round"/>
<path d="M28.9 23.8H4C3.44772 23.8 3 24.2477 3 24.8V28.35C3 28.9023 3.44772 29.35 4 29.35H28.9C29.4523 29.35 29.9 28.9023 29.9 28.35V24.8C29.9 24.2477 29.4523 23.8 28.9 23.8Z" fill="url(#paint1_linear_20_28)" stroke="black" stroke-width="2" stroke-linecap="round" stroke-linejoin="round"/>
<path d="M16.5 12.2V14.7" stroke="black" stroke-width="2" stroke-linecap="round" stroke-linejoin="round"/>
<path d="M18.0998 10.9C20.7998 8.5 16.4998 3 16.4998 3C16.4998 3 12.0998 8.5 14.7998 10.9C15.2649 11.2819 15.848 11.4906 16.4498 11.4906C17.0516 11.4906 17.6347 11.2819 18.0998 10.9Z" fill="url(#paint2_linear_20_28)" stroke="black" stroke-width="2" stroke-linecap="round" stroke-linejoin="round"/>
<defs>
<linearGradient id="paint0_linear_20_28" x1="15" y1="17.5" x2="15" y2="24" gradientUnits="userSpaceOnUse">
<stop stop-color="#FF7DAC" stop-opacity="0"/>
<stop offset="1" stop-color="#FF0440"/>
</linearGradient>
<linearGradient id="paint1_linear_20_28" x1="2.98152" y1="29.3565" x2="6.22347" y2="17.3821" gradientUnits="userSpaceOnUse">
<stop stop-color="#FF7DAC"/>
<stop offset="1" stop-color="#FF0440"/>
</linearGradient>
<linearGradient id="paint2_linear_20_28" x1="18.9904" y1="11.4906" x2="11.5177" y2="7.03105" gradientUnits="userSpaceOnUse">
<stop stop-color="#FFD15C"/>
<stop offset="1" stop-color="#F3AF00"/>
</linearGradient>
</defs>
</svg>
