<svg width="32" height="32" viewBox="0 0 32 32" fill="none" xmlns="http://www.w3.org/2000/svg">
<path d="M30.1 18.9H2V29.62H30.1V18.9Z" fill="url(#paint0_linear_20_36)" stroke="black" stroke-width="2" stroke-linecap="round" stroke-linejoin="round"/>
<path d="M26.4002 14.7H5.7002V18.91H26.4002V14.7Z" stroke="black" stroke-width="2" stroke-linecap="round" stroke-linejoin="round"/>
<path d="M11.4 20.9C11.3227 22.0761 10.787 23.175 9.90818 23.9603C9.0293 24.7457 7.87738 25.1549 6.7 25.1C5.52262 25.1549 4.3707 24.7457 3.49182 23.9603C2.61295 23.175 2.0773 22.0761 2 20.9" stroke="black" stroke-width="2" stroke-linecap="round" stroke-linejoin="round"/>
<path d="M20.7999 20.9C20.7226 22.0761 20.187 23.175 19.3081 23.9603C18.4292 24.7457 17.2773 25.1549 16.0999 25.1C14.9225 25.1549 13.7706 24.7457 12.8917 23.9603C12.0129 23.175 11.4772 22.0761 11.3999 20.9" stroke="black" stroke-width="2" stroke-linecap="round" stroke-linejoin="round"/>
<path d="M30.0998 20.9C30.0225 22.0761 29.4869 23.175 28.608 23.9603C27.7291 24.7457 26.5772 25.1549 25.3998 25.1C24.2394 25.1283 23.1129 24.7072 22.2557 23.9245C21.3985 23.1419 20.8768 22.0582 20.7998 20.9" stroke="black" stroke-width="2" stroke-linecap="round" stroke-linejoin="round"/>
<path d="M16.1001 11.2V13.7" stroke="black" stroke-width="2" stroke-linecap="round" stroke-linejoin="round"/>
<path d="M17.6999 9.89999C20.4999 7.49999 16.0999 2 16.0999 2C16.0999 2 11.6999 7.49999 14.3999 9.89999C14.865 10.2819 15.4481 10.4906 16.0499 10.4906C16.6517 10.4906 17.2348 10.2819 17.6999 9.89999Z" fill="url(#paint1_linear_20_36)" stroke="black" stroke-width="2" stroke-linecap="round" stroke-linejoin="round"/>
<defs>
<linearGradient id="paint0_linear_20_36" x1="1.98069" y1="29.6325" x2="11.9177" y2="9.78285" gradientUnits="userSpaceOnUse">
<stop stop-color="#FF7DAC"/>
<stop offset="1" stop-color="#FF0440"/>
</linearGradient>
<linearGradient id="paint1_linear_20_36" x1="18.6321" y1="10.4906" x2="11.1305" y2="5.97706" gradientUnits="userSpaceOnUse">
<stop stop-color="#FFD15C"/>
<stop offset="1" stop-color="#F3AF00"/>
</linearGradient>
</defs>
</svg>
