<svg width="32" height="32" viewBox="0 0 32 32" fill="none" xmlns="http://www.w3.org/2000/svg">
<path d="M24.4 4C23.7438 4.62776 23.2335 5.39201 22.9051 6.23872C22.5768 7.08544 22.4385 7.99395 22.5 8.90001C22.4788 9.68567 22.6148 10.4676 22.9 11.2L23.1 11.6C23.5338 12.6827 23.7708 13.834 23.8 15C23.7881 17.3293 22.8531 19.5589 21.2 21.2C20.3825 22.0049 19.4138 22.6402 18.3497 23.0693C17.2857 23.4983 16.1472 23.7127 15 23.7C13.8717 23.7134 12.7514 23.5097 11.7 23.1L11.2 22.9C10.5101 22.5803 9.76036 22.4099 9 22.4C8.06366 22.3627 7.13056 22.5314 6.26659 22.8942C5.40261 23.2571 4.62886 23.8053 4 24.5L8.60001 29C10 27.9 10.4 25.7 10.4 23.9C10.4311 23.1461 10.2944 22.3947 10 21.7L9.8 21.2C9.31092 20.1347 9.0715 18.9718 9.10001 17.8C9.11195 15.4707 10.0469 13.2411 11.7 11.6C13.3633 9.99268 15.587 9.09602 17.9 9.10001C19.0399 9.06872 20.171 9.30863 21.2 9.8L21.7 10C22.4103 10.2383 23.1513 10.373 23.9 10.4C24.8329 10.4117 25.7582 10.2313 26.6184 9.87001C27.4786 9.50873 28.2552 8.97432 28.9 8.3L24.4 4Z" fill="url(#paint0_linear_20_60)" stroke="black" stroke-width="2" stroke-linecap="round" stroke-linejoin="round"/>
<defs>
<linearGradient id="paint0_linear_20_60" x1="28.9" y1="29" x2="3.90021" y2="4.10019" gradientUnits="userSpaceOnUse">
<stop offset="0.127563" stop-color="#773BF5" stop-opacity="0"/>
<stop offset="1" stop-color="#4600DA"/>
</linearGradient>
</defs>
</svg>
