<svg width="32" height="32" viewBox="0 0 32 32" fill="none" xmlns="http://www.w3.org/2000/svg">
<path d="M23 16.1C23.0262 17.7535 23.7015 19.3303 24.8802 20.4903C26.0588 21.6502 27.6463 22.3002 29.3 22.3V29.2H3V3H9.89999C10.0928 4.5215 10.8341 5.92039 11.9847 6.93439C13.1353 7.94839 14.6163 8.50784 16.15 8.50784C17.6837 8.50784 19.1646 7.94839 20.3153 6.93439C21.4659 5.92039 22.2072 4.5215 22.4 3H29.3V9.79999C27.6291 9.79999 26.0267 10.4637 24.8452 11.6452C23.6637 12.8267 23 14.4291 23 16.1Z" fill="url(#paint0_linear_20_482)" stroke="black" stroke-width="2" stroke-linecap="round" stroke-linejoin="round"/>
<path d="M22.3999 3C22.2071 4.5215 21.4658 5.92039 20.3152 6.93439C19.1646 7.94839 17.6836 8.50784 16.1499 8.50784C14.6162 8.50784 13.1352 7.94839 11.9846 6.93439C10.834 5.92039 10.0927 4.5215 9.8999 3" stroke="black" stroke-width="2" stroke-linecap="round" stroke-linejoin="round"/>
<path d="M29.3002 22.3C28.4131 22.4124 27.5122 22.3347 26.6574 22.0721C25.8026 21.8094 25.0136 21.3678 24.3427 20.7766C23.6718 20.1853 23.1345 19.4581 22.7664 18.6431C22.3984 17.8282 22.208 16.9442 22.208 16.05C22.208 15.1558 22.3984 14.2718 22.7664 13.4569C23.1345 12.6419 23.6718 11.9147 24.3427 11.3235C25.0136 10.7322 25.8026 10.2906 26.6574 10.0279C27.5122 9.76528 28.4131 9.68756 29.3002 9.8" stroke="black" stroke-width="2" stroke-linecap="round" stroke-linejoin="round"/>
<path d="M12.7001 23C14.9645 23 16.8001 21.1644 16.8001 18.9C16.8001 16.6356 14.9645 14.8 12.7001 14.8C10.4357 14.8 8.6001 16.6356 8.6001 18.9C8.6001 21.1644 10.4357 23 12.7001 23Z" fill="white" stroke="black" stroke-width="2" stroke-linecap="round" stroke-linejoin="round"/>
<defs>
<linearGradient id="paint0_linear_20_482" x1="29.3" y1="29.2" x2="3.10018" y2="2.9002" gradientUnits="userSpaceOnUse">
<stop stop-color="#FFD15C"/>
<stop offset="1" stop-color="#F3AF00"/>
</linearGradient>
</defs>
</svg>
