<svg width="32" height="32" viewBox="0 0 32 32" fill="none" xmlns="http://www.w3.org/2000/svg">
<rect x="8" y="9" width="16" height="13" fill="#7639F8"/>
<path d="M9.10004 12.6412C8.65643 11.6669 8.41814 10.6116 8.40002 9.54121C8.61053 7.73958 9.47539 6.07801 10.8304 4.87212C12.1854 3.66622 13.9361 3 15.75 3C17.5639 3 19.3146 3.66622 20.6696 4.87212C22.0246 6.07801 22.8895 7.73958 23.1 9.54121C23.0711 10.6103 22.8333 11.6634 22.4 12.6412" fill="url(#paint0_linear_20_8)"/>
<path d="M8.00002 21.1412C6.31394 20.8361 4.78891 19.9476 3.69197 18.6313C2.59504 17.3149 1.9961 15.6547 2.00002 13.9412C2.00002 9.94122 4.70003 7.44122 8.70003 7.44122" fill="url(#paint1_linear_20_8)"/>
<path d="M22.7 7.44122C26.8 7.44122 29.5 9.94122 29.5 13.9412C29.5039 15.6547 28.905 17.3149 27.808 18.6313C26.7111 19.9476 25.1861 20.8361 23.5 21.1412" fill="url(#paint2_linear_20_8)"/>
<path d="M8.00002 21.1412L8 28.7412H23.4V21.1412" fill="url(#paint3_linear_20_8)"/>
<path d="M9.10004 12.6412C8.65643 11.6669 8.41814 10.6116 8.40002 9.54121C8.61053 7.73958 9.47539 6.07801 10.8304 4.87212C12.1854 3.66622 13.9361 3 15.75 3C17.5639 3 19.3146 3.66622 20.6696 4.87212C22.0246 6.07801 22.8895 7.73958 23.1 9.54121C23.0711 10.6103 22.8333 11.6634 22.4 12.6412M8.70003 7.44122C4.70003 7.44122 2.00002 9.94122 2.00002 13.9412C1.9961 15.6547 2.59504 17.3149 3.69197 18.6313C4.78891 19.9476 6.31394 20.8361 8.00002 21.1412L8 28.7412H23.4V21.1412M22.7 7.44122C26.8 7.44122 29.5 9.94122 29.5 13.9412C29.5039 15.6547 28.905 17.3149 27.808 18.6313C26.7111 19.9476 25.1861 20.8361 23.5 21.1412M8 24.9412H23.4" stroke="black" stroke-width="2" stroke-linecap="round" stroke-linejoin="round"/>
<path d="M15.7002 24.9412V20.9412" stroke="black" stroke-width="2" stroke-linecap="round" stroke-linejoin="round"/>
<defs>
<linearGradient id="paint0_linear_20_8" x1="16.5" y1="30.5" x2="17.2495" y2="4.04957" gradientUnits="userSpaceOnUse">
<stop offset="0.161985" stop-color="#773BF5" stop-opacity="0"/>
<stop offset="0.231939" stop-color="#7537F9"/>
</linearGradient>
<linearGradient id="paint1_linear_20_8" x1="16.5" y1="30.5" x2="17.2495" y2="4.04957" gradientUnits="userSpaceOnUse">
<stop offset="0.161985" stop-color="#773BF5" stop-opacity="0"/>
<stop offset="0.231939" stop-color="#7537F9"/>
</linearGradient>
<linearGradient id="paint2_linear_20_8" x1="16.5" y1="30.5" x2="17.2495" y2="4.04957" gradientUnits="userSpaceOnUse">
<stop offset="0.161985" stop-color="#773BF5" stop-opacity="0"/>
<stop offset="0.231939" stop-color="#7537F9"/>
</linearGradient>
<linearGradient id="paint3_linear_20_8" x1="16.5" y1="30.5" x2="17.2495" y2="4.04957" gradientUnits="userSpaceOnUse">
<stop offset="0.161985" stop-color="#773BF5" stop-opacity="0"/>
<stop offset="0.231939" stop-color="#7537F9"/>
</linearGradient>
</defs>
</svg>
