<svg width="32" height="32" viewBox="0 0 32 32" fill="none" xmlns="http://www.w3.org/2000/svg">
<path d="M27.5998 21.5888C27.6405 20.1282 27.367 18.6759 26.7977 17.3301C26.2283 15.9844 25.3765 14.7767 24.2998 13.7888" stroke="black" stroke-width="2" stroke-linecap="round" stroke-linejoin="round"/>
<path d="M5 21.5888C5 15.2888 10.1 10.6888 16.3 10.6888C17.8032 10.6844 19.2946 10.9555 20.7 11.4888" stroke="black" stroke-width="2" stroke-linecap="round" stroke-linejoin="round"/>
<path d="M2 25.5888H30.6" stroke="black" stroke-width="2" stroke-linecap="round" stroke-linejoin="round"/>
<path d="M24.7001 12.3888L24.3 13.7888L24.1001 14.6888C23.5951 16.7735 22.522 18.6774 21.0001 20.1888L20.6001 20.4888C20.347 20.7679 20.0383 20.9909 19.6938 21.1435C19.3494 21.2961 18.9768 21.375 18.6001 21.375C18.2233 21.375 17.8507 21.2961 17.5063 21.1435C17.1618 20.9909 16.8532 20.7679 16.6001 20.4888L15.8 19.6888L15.0001 18.8888C14.734 18.6281 14.5226 18.3169 14.3783 17.9735C14.234 17.6301 14.1597 17.2613 14.1597 16.8888C14.1597 16.5163 14.234 16.1476 14.3783 15.8041C14.5226 15.4607 14.734 15.1495 15.0001 14.8888L15.4001 14.5888C16.8367 13.0734 18.675 11.9982 20.7001 11.4888H20.8L23.1001 10.8888L24.7001 12.3888Z" fill="url(#paint0_linear_20_667)" stroke="black" stroke-width="2" stroke-linecap="round" stroke-linejoin="round"/>
<path d="M29.0998 11.5888C28.7213 11.8803 28.2745 12.0701 27.8019 12.1401C27.3293 12.2101 26.8466 12.1581 26.3998 11.9889L24.5998 12.3888L23.2998 10.9889L23.6998 9.18887C23.4928 8.77296 23.411 8.30585 23.4642 7.84433C23.5175 7.38281 23.7035 6.94668 23.9998 6.58884C24.9998 5.58884 26.9998 5.88885 28.3998 7.28885C29.7998 8.68885 30.0998 10.5888 29.0998 11.5888Z" stroke="black" stroke-width="2" stroke-linecap="round" stroke-linejoin="round"/>
<defs>
<linearGradient id="paint0_linear_20_667" x1="25.8185" y1="21.7154" x2="14.2157" y2="10.8291" gradientUnits="userSpaceOnUse">
<stop stop-color="#9C6060"/>
<stop offset="1" stop-color="#9B5139"/>
</linearGradient>
</defs>
</svg>
