<svg width="32" height="32" viewBox="0 0 32 32" fill="none" xmlns="http://www.w3.org/2000/svg">
<path d="M15.6 29.2C23.111 29.2 29.2 23.1111 29.2 15.6C29.2 8.08893 23.111 2 15.6 2C8.0889 2 2 8.08893 2 15.6C2 23.1111 8.0889 29.2 15.6 29.2Z" fill="url(#paint0_linear_20_18)" stroke="black" stroke-width="2" stroke-linecap="round" stroke-linejoin="round"/>
<path d="M20.2998 23.7C21.4044 23.7 22.2998 22.8046 22.2998 21.7C22.2998 20.5954 21.4044 19.7 20.2998 19.7C19.1952 19.7 18.2998 20.5954 18.2998 21.7C18.2998 22.8046 19.1952 23.7 20.2998 23.7Z" fill="black"/>
<path d="M8.7002 19.7C9.80476 19.7 10.7002 18.8046 10.7002 17.7C10.7002 16.5954 9.80476 15.7 8.7002 15.7C7.59563 15.7 6.7002 16.5954 6.7002 17.7C6.7002 18.8046 7.59563 19.7 8.7002 19.7Z" fill="black"/>
<path d="M17.7002 10C18.8048 10 19.7002 9.10457 19.7002 8C19.7002 6.89543 18.8048 6 17.7002 6C16.5956 6 15.7002 6.89543 15.7002 8C15.7002 9.10457 16.5956 10 17.7002 10Z" fill="black"/>
<path d="M17.7 16.8C18.3628 16.8 18.9 16.2627 18.9 15.6C18.9 14.9373 18.3628 14.4 17.7 14.4C17.0373 14.4 16.5 14.9373 16.5 15.6C16.5 16.2627 17.0373 16.8 17.7 16.8Z" fill="black"/>
<path d="M23.0999 14.7C23.7627 14.7 24.2999 14.1627 24.2999 13.5C24.2999 12.8373 23.7627 12.3 23.0999 12.3C22.4372 12.3 21.8999 12.8373 21.8999 13.5C21.8999 14.1627 22.4372 14.7 23.0999 14.7Z" fill="black"/>
<path d="M12.9998 23.7C13.6626 23.7 14.1998 23.1627 14.1998 22.5C14.1998 21.8373 13.6626 21.3 12.9998 21.3C12.3371 21.3 11.7998 21.8373 11.7998 22.5C11.7998 23.1627 12.3371 23.7 12.9998 23.7Z" fill="black"/>
<path d="M10.4998 12.4C11.1626 12.4 11.6998 11.8628 11.6998 11.2C11.6998 10.5373 11.1626 10 10.4998 10C9.83708 10 9.2998 10.5373 9.2998 11.2C9.2998 11.8628 9.83708 12.4 10.4998 12.4Z" fill="black"/>
<defs>
<linearGradient id="paint0_linear_20_18" x1="-1.5" y1="-4" x2="29.238" y2="29.1753" gradientUnits="userSpaceOnUse">
<stop stop-color="#FFA654" stop-opacity="0"/>
<stop offset="1" stop-color="#F26702"/>
</linearGradient>
</defs>
</svg>
