<svg width="32" height="32" viewBox="0 0 32 32" fill="none" xmlns="http://www.w3.org/2000/svg">
<path d="M13.4 29.7574C19.696 29.7574 24.8 24.6535 24.8 18.3575C24.8 12.0614 19.696 6.95746 13.4 6.95746C7.10395 6.95746 2 12.0614 2 18.3575C2 24.6535 7.10395 29.7574 13.4 29.7574Z" fill="url(#paint0_linear_20_62)" stroke="black" stroke-width="2" stroke-linecap="round" stroke-linejoin="round"/>
<path d="M17 4.25745C18.4454 2.81202 20.4059 2 22.45 2C24.4941 2 26.4546 2.81202 27.9 4.25745C29.3454 5.70288 30.1575 7.66331 30.1575 9.70746C30.1575 11.7516 29.3454 13.712 27.9 15.1574" stroke="black" stroke-width="2" stroke-linecap="round" stroke-linejoin="round"/>
<path d="M23.1998 8.35745C23.973 8.35745 24.5998 7.73066 24.5998 6.95746C24.5998 6.18426 23.973 5.55746 23.1998 5.55746C22.4266 5.55746 21.7998 6.18426 21.7998 6.95746C21.7998 7.73066 22.4266 8.35745 23.1998 8.35745Z" fill="black"/>
<path d="M13.4 20.4575C14.1732 20.4575 14.8 19.8307 14.8 19.0575C14.8 18.2843 14.1732 17.6574 13.4 17.6574C12.6268 17.6574 12 18.2843 12 19.0575C12 19.8307 12.6268 20.4575 13.4 20.4575Z" fill="black"/>
<path d="M14.7999 13.8575C15.5731 13.8575 16.1999 13.2307 16.1999 12.4575C16.1999 11.6843 15.5731 11.0575 14.7999 11.0575C14.0267 11.0575 13.3999 11.6843 13.3999 12.4575C13.3999 13.2307 14.0267 13.8575 14.7999 13.8575Z" fill="black"/>
<path d="M19.6998 21.8575C20.473 21.8575 21.0998 21.2307 21.0998 20.4575C21.0998 19.6843 20.473 19.0575 19.6998 19.0575C18.9266 19.0575 18.2998 19.6843 18.2998 20.4575C18.2998 21.2307 18.9266 21.8575 19.6998 21.8575Z" fill="black"/>
<path d="M10.1998 25.8575C10.973 25.8575 11.5998 25.2307 11.5998 24.4575C11.5998 23.6843 10.973 23.0575 10.1998 23.0575C9.42661 23.0575 8.7998 23.6843 8.7998 24.4575C8.7998 25.2307 9.42661 25.8575 10.1998 25.8575Z" fill="black"/>
<path d="M8.0001 17.2574C8.7733 17.2574 9.4001 16.6307 9.4001 15.8575C9.4001 15.0843 8.7733 14.4575 8.0001 14.4575C7.2269 14.4575 6.6001 15.0843 6.6001 15.8575C6.6001 16.6307 7.2269 17.2574 8.0001 17.2574Z" fill="black"/>
<defs>
<linearGradient id="paint0_linear_20_62" x1="-4.5" y1="1.5" x2="24.8318" y2="29.7367" gradientUnits="userSpaceOnUse">
<stop stop-color="#FFA654" stop-opacity="0"/>
<stop offset="0.929061" stop-color="#F26702"/>
</linearGradient>
</defs>
</svg>
