<svg width="32" height="32" viewBox="0 0 32 32" fill="none" xmlns="http://www.w3.org/2000/svg">
<path d="M3 12.7H23.9V22.8C23.9 24.4709 23.2363 26.0733 22.0548 27.2548C20.8733 28.4362 19.2709 29.1 17.6 29.1H9.4C7.72913 29.1 6.1267 28.4362 4.94522 27.2548C3.76375 26.0733 3.1 24.4709 3.1 22.8V12.7H3Z" fill="url(#paint0_linear_20_316)" stroke="black" stroke-width="2" stroke-linecap="round" stroke-linejoin="round"/>
<path d="M7.2998 7.90002V4.20001" stroke="black" stroke-width="2" stroke-linecap="round" stroke-linejoin="round"/>
<path d="M19.5996 8V4.10004" stroke="black" stroke-width="2" stroke-linecap="round" stroke-linejoin="round"/>
<path d="M13.3999 6.5V3" stroke="black" stroke-width="2" stroke-linecap="round" stroke-linejoin="round"/>
<path d="M23.8999 14.9H29.2999V18.9C29.2999 19.9078 28.8996 20.8744 28.1869 21.587C27.4743 22.2997 26.5077 22.7 25.4999 22.7H23.8999V14.9Z" stroke="black" stroke-width="2" stroke-linecap="round" stroke-linejoin="round"/>
<path d="M18.5002 17.3H12.2002V23.6H18.5002V17.3Z" fill="white" stroke="black" stroke-width="2" stroke-linecap="round" stroke-linejoin="round"/>
<path d="M15.3003 12.7V17.3" stroke="black" stroke-width="2" stroke-linecap="round" stroke-linejoin="round"/>
<defs>
<linearGradient id="paint0_linear_20_316" x1="26.1176" y1="29.6324" x2="8.20486" y2="8.32448" gradientUnits="userSpaceOnUse">
<stop stop-color="#9C6060"/>
<stop offset="1" stop-color="#9B5139"/>
</linearGradient>
</defs>
</svg>
