<svg width="32" height="32" viewBox="0 0 32 32" fill="none" xmlns="http://www.w3.org/2000/svg">
<path d="M11.7 30H21.2C21.5629 30.0134 21.9248 29.9536 22.264 29.8239C22.6032 29.6943 22.9128 29.4975 23.1742 29.2454C23.4356 28.9934 23.6434 28.6911 23.7853 28.3569C23.9272 28.0226 24.0002 27.6631 24 27.3L24.4998 14.5L8.5 14.4L8.90002 27.3C8.92594 28.0251 9.23232 28.7119 9.75464 29.2156C10.277 29.7192 10.9744 30.0005 11.7 30Z" fill="url(#paint0_linear_20_564)"/>
<path d="M21.2002 30H11.7002C10.9746 30.0005 10.2771 29.7192 9.75478 29.2156C9.23246 28.7119 8.92608 28.0251 8.90017 27.3L8.50014 14.4C8.48693 13.3494 8.68083 12.3065 9.0707 11.3308C9.46058 10.3551 10.0388 9.46586 10.7724 8.71368C11.506 7.96151 12.3806 7.36119 13.3462 6.94705C14.3118 6.53291 15.3496 6.31304 16.4002 6.29999C17.4461 6.2999 18.4816 6.50752 19.4466 6.91077C20.4117 7.31402 21.2871 7.9049 22.022 8.64911C22.7569 9.39332 23.3367 10.276 23.7277 11.2461C24.1188 12.2161 24.3134 13.2542 24.3002 14.3L24.0001 27.3C24.0004 27.6631 23.9274 28.0226 23.7855 28.3569C23.6436 28.6911 23.4357 28.9934 23.1743 29.2454C22.9129 29.4975 22.6033 29.6943 22.2641 29.8239C21.9249 29.9536 21.5631 30.0134 21.2002 30Z" stroke="black" stroke-width="2" stroke-miterlimit="10"/>
<path d="M6 14.6H26.8" stroke="black" stroke-width="2" stroke-linecap="round" stroke-linejoin="round"/>
<path d="M16.4 22.7L15.7 1H10" stroke="black" stroke-width="2" stroke-linecap="round" stroke-linejoin="round"/>
<defs>
<linearGradient id="paint0_linear_20_564" x1="8.55564" y1="16.8265" x2="24.1856" y2="30.3759" gradientUnits="userSpaceOnUse">
<stop stop-color="#FFA654"/>
<stop offset="1" stop-color="#F26702"/>
</linearGradient>
</defs>
</svg>
