<svg width="32" height="32" viewBox="0 0 32 32" fill="none" xmlns="http://www.w3.org/2000/svg">
<path d="M7.59998 9.36266H4.89997C4.53722 9.38982 4.17274 9.3434 3.82838 9.22618C3.48401 9.10897 3.16692 8.92336 2.89607 8.68053C2.62522 8.4377 2.40618 8.14264 2.25221 7.81307C2.09823 7.4835 2.01247 7.12621 2.00001 6.76265C1.9982 6.05343 2.26559 5.36995 2.74818 4.85024C3.23077 4.33053 3.89257 4.01332 4.59998 3.96267L20.6 2.06267C21.1672 1.96357 21.7488 1.98216 22.3085 2.1173C22.8683 2.25244 23.3942 2.50123 23.8538 2.84822C24.3133 3.19522 24.6965 3.63299 24.9797 4.13436C25.2629 4.63572 25.4401 5.18996 25.5 5.76265C25.53 6.51294 25.3371 7.25533 24.9455 7.89605C24.554 8.53676 23.9814 9.0471 23.3 9.36266" fill="url(#paint0_linear_20_244)"/>
<path d="M7.59998 9.36266H4.89997C4.53722 9.38982 4.17274 9.3434 3.82838 9.22618C3.48401 9.10897 3.16692 8.92336 2.89607 8.68053C2.62522 8.4377 2.40618 8.14264 2.25221 7.81307C2.09823 7.4835 2.01247 7.12621 2.00001 6.76265C1.9982 6.05343 2.26559 5.36995 2.74818 4.85024C3.23077 4.33053 3.89257 4.01332 4.59998 3.96267L20.6 2.06267C21.1672 1.96357 21.7488 1.98216 22.3085 2.1173C22.8683 2.25244 23.3942 2.50123 23.8538 2.84822C24.3133 3.19522 24.6965 3.63299 24.9797 4.13436C25.2629 4.63572 25.4401 5.18996 25.5 5.76265C25.53 6.51294 25.3371 7.25533 24.9455 7.89605C24.554 8.53676 23.9814 9.0471 23.3 9.36266" stroke="black" stroke-width="2" stroke-linecap="round" stroke-linejoin="round"/>
<path d="M25.5 5.6627C26.1478 5.24095 26.923 5.05997 27.6906 5.15135C28.4582 5.24273 29.1693 5.60066 29.7 6.1627" stroke="black" stroke-width="2" stroke-linecap="round" stroke-linejoin="round"/>
<path d="M15.1002 30.2627C14.8289 30.263 14.5604 30.2082 14.311 30.1015C14.0616 29.9948 13.8365 29.8384 13.6494 29.642C13.4623 29.4456 13.3171 29.2131 13.2227 28.9588C13.1283 28.7045 13.0866 28.4336 13.1002 28.1627L14.0002 17.1627H16.3002L17.2002 28.1627C17.2002 28.7196 16.9789 29.2538 16.5851 29.6476C16.1913 30.0414 15.6571 30.2627 15.1002 30.2627Z" stroke="black" stroke-width="2" stroke-linecap="round" stroke-linejoin="round"/>
<path d="M19.1 13.1627C18.9479 14.1275 18.4564 15.0064 17.7139 15.641C16.9714 16.2756 16.0267 16.6243 15.05 16.6243C14.0732 16.6243 13.1286 16.2756 12.3861 15.641C11.6436 15.0064 11.1521 14.1275 11 13.1627" stroke="black" stroke-width="2" stroke-linecap="round" stroke-linejoin="round"/>
<path d="M11 7.76266V13.1627" stroke="black" stroke-width="2" stroke-linecap="round" stroke-linejoin="round"/>
<path d="M15.1001 7.76266V12.9627" stroke="black" stroke-width="2" stroke-linecap="round" stroke-linejoin="round"/>
<path d="M19.1001 7.76266V13.1627" stroke="black" stroke-width="2" stroke-linecap="round" stroke-linejoin="round"/>
<defs>
<linearGradient id="paint0_linear_20_244" x1="2.08173" y1="3.14625" x2="6.94629" y2="16.2596" gradientUnits="userSpaceOnUse">
<stop stop-color="#FFA654"/>
<stop offset="1" stop-color="#F26702"/>
</linearGradient>
</defs>
</svg>
