<svg width="32" height="32" viewBox="0 0 32 32" fill="none" xmlns="http://www.w3.org/2000/svg">
<path d="M28.2999 2H17.8999V11.93H28.2999V2Z" stroke="black" stroke-width="2" stroke-linecap="round" stroke-linejoin="round"/>
<path d="M20.2998 19H25.9998V26.7C25.9998 27.4426 25.7048 28.1548 25.1797 28.6799C24.6546 29.205 23.9424 29.5 23.1998 29.5C22.4572 29.5 21.745 29.205 21.2199 28.6799C20.6948 28.1548 20.3998 27.4426 20.3998 26.7V19H20.2998Z" fill="url(#paint0_linear_20_645)" stroke="black" stroke-width="2" stroke-linecap="round" stroke-linejoin="round"/>
<path d="M23.0996 2V19" stroke="black" stroke-width="2" stroke-linecap="round" stroke-linejoin="round"/>
<path d="M5.1001 19H10.8001V26.7C10.8001 27.4426 10.5051 28.1548 9.98004 28.6799C9.45494 29.205 8.74273 29.5 8.00012 29.5C7.25752 29.5 6.5453 29.205 6.0202 28.6799C5.4951 28.1548 5.20013 27.4426 5.20013 26.7V19H5.1001Z" fill="url(#paint1_linear_20_645)" stroke="black" stroke-width="2" stroke-linecap="round" stroke-linejoin="round"/>
<path d="M8.1001 12.3V19" stroke="black" stroke-width="2" stroke-linecap="round" stroke-linejoin="round"/>
<path d="M11.8 2V8C11.8138 8.5159 11.7223 9.02921 11.5312 9.50861C11.3401 9.988 11.0533 10.4234 10.6884 10.7884C10.3234 11.1533 9.88796 11.4401 9.40857 11.6312C8.92918 11.8223 8.41593 11.9138 7.90002 11.9C6.86568 11.9 5.87366 11.4891 5.14227 10.7577C4.41088 10.0263 4 9.03434 4 8V2" stroke="black" stroke-width="2" stroke-linecap="round" stroke-linejoin="round"/>
<defs>
<linearGradient id="paint0_linear_20_645" x1="20.3196" y1="20.633" x2="28.3759" y2="24.33" gradientUnits="userSpaceOnUse">
<stop stop-color="#FFA654"/>
<stop offset="1" stop-color="#F26702"/>
</linearGradient>
<linearGradient id="paint1_linear_20_645" x1="5.11992" y1="20.633" x2="13.1762" y2="24.3299" gradientUnits="userSpaceOnUse">
<stop stop-color="#FFA654"/>
<stop offset="1" stop-color="#F26702"/>
</linearGradient>
</defs>
</svg>
