<svg width="32" height="32" viewBox="0 0 32 32" fill="none" xmlns="http://www.w3.org/2000/svg">
<path d="M26.3001 2V20.2H19.6001V8.70001C19.6001 6.92306 20.306 5.21887 21.5625 3.96237C22.819 2.70588 24.5232 2 26.3001 2Z" stroke="black" stroke-width="2" stroke-linecap="round" stroke-linejoin="round"/>
<path d="M22.3999 20.1H26.2999V28.5C26.2999 29.0039 26.0997 29.4872 25.7434 29.8435C25.3871 30.1998 24.9038 30.4 24.3999 30.4H24.2999C23.796 30.4 23.3127 30.1998 22.9564 29.8435C22.6001 29.4872 22.3999 29.0039 22.3999 28.5V20.1Z" fill="url(#paint0_linear_20_187)" stroke="black" stroke-width="2" stroke-linecap="round" stroke-linejoin="round"/>
<path d="M9.59979 30.4C8.98979 30.4 8.40478 30.1577 7.97345 29.7263C7.54212 29.295 7.2998 28.71 7.2998 28.1L8.2998 15.6H10.9998L11.9998 28.1C12.0001 28.4106 11.9375 28.7181 11.8157 29.0039C11.6939 29.2897 11.5154 29.5478 11.2912 29.7628C11.0669 29.9777 10.8014 30.145 10.5107 30.2545C10.22 30.364 9.91014 30.4135 9.59979 30.4Z" fill="url(#paint1_linear_20_187)" stroke="black" stroke-width="2" stroke-linecap="round" stroke-linejoin="round"/>
<path d="M14.1 11.1C13.9379 12.1908 13.3892 13.1871 12.554 13.9073C11.7189 14.6274 10.6528 15.0236 9.55002 15.0236C8.44722 15.0236 7.38112 14.6274 6.54596 13.9073C5.7108 13.1871 5.16216 12.1908 5 11.1H14.1Z" stroke="black" stroke-width="2" stroke-linecap="round" stroke-linejoin="round"/>
<path d="M5 2.79999V11.1" stroke="black" stroke-width="2" stroke-linecap="round" stroke-linejoin="round"/>
<path d="M9.5 2.79999V10.9" stroke="black" stroke-width="2" stroke-linecap="round" stroke-linejoin="round"/>
<path d="M14.1001 2.79999V11.1" stroke="black" stroke-width="2" stroke-linecap="round" stroke-linejoin="round"/>
<defs>
<linearGradient id="paint0_linear_20_187" x1="22.4135" y1="21.7019" x2="28.4663" y2="23.6393" gradientUnits="userSpaceOnUse">
<stop stop-color="#FFA654"/>
<stop offset="1" stop-color="#F26702"/>
</linearGradient>
<linearGradient id="paint1_linear_20_187" x1="7.31615" y1="17.9021" x2="14.8174" y2="19.9155" gradientUnits="userSpaceOnUse">
<stop stop-color="#FFA654"/>
<stop offset="1" stop-color="#F26702"/>
</linearGradient>
</defs>
</svg>
