<svg width="32" height="32" viewBox="0 0 32 32" fill="none" xmlns="http://www.w3.org/2000/svg">
<path d="M9.3 30C8.69001 30 8.10498 29.7577 7.67365 29.3264C7.24231 28.895 7 28.31 7 27.7L8 15.2H10.7L11.7 27.7C11.7003 28.0107 11.6377 28.3181 11.5159 28.6039C11.3941 28.8897 11.2157 29.1478 10.9914 29.3628C10.7671 29.5777 10.5016 29.745 10.2109 29.8545C9.92021 29.964 9.61035 30.0135 9.3 30Z" fill="url(#paint0_linear_20_656)" stroke="black" stroke-width="2" stroke-linecap="round" stroke-linejoin="round"/>
<path d="M9.3 15.2C12.2271 15.2 14.6 12.2451 14.6 8.60001C14.6 4.95493 12.2271 2 9.3 2C6.37289 2 4 4.95493 4 8.60001C4 12.2451 6.37289 15.2 9.3 15.2Z" stroke="black" stroke-width="2" stroke-linecap="round" stroke-linejoin="round"/>
<path d="M23.1999 30C22.5899 30 22.0049 29.7577 21.5735 29.3264C21.1422 28.895 20.8999 28.31 20.8999 27.7L21.8999 15.2H24.5999L25.5999 27.7C25.6002 28.0107 25.5376 28.3181 25.4158 28.6039C25.294 28.8897 25.1155 29.1478 24.8913 29.3628C24.667 29.5777 24.4015 29.745 24.1108 29.8545C23.8201 29.964 23.5102 30.0135 23.1999 30Z" fill="url(#paint1_linear_20_656)" stroke="black" stroke-width="2" stroke-linecap="round" stroke-linejoin="round"/>
<path d="M27.7001 10.7C27.674 11.9026 27.1778 13.0471 26.3179 13.8882C25.4581 14.7294 24.303 15.2003 23.1001 15.2C21.9066 15.2 20.762 14.7259 19.9181 13.882C19.0742 13.0381 18.6001 11.8935 18.6001 10.7H27.7001Z" stroke="black" stroke-width="2" stroke-linecap="round" stroke-linejoin="round"/>
<path d="M18.6001 2.39999V10.7" stroke="black" stroke-width="2" stroke-linecap="round" stroke-linejoin="round"/>
<path d="M23.1001 2.39999V10.5" stroke="black" stroke-width="2" stroke-linecap="round" stroke-linejoin="round"/>
<path d="M27.7002 2.39999V10.7" stroke="black" stroke-width="2" stroke-linecap="round" stroke-linejoin="round"/>
<defs>
<linearGradient id="paint0_linear_20_656" x1="7.01634" y1="17.5021" x2="14.5176" y2="19.5155" gradientUnits="userSpaceOnUse">
<stop stop-color="#FFA654"/>
<stop offset="1" stop-color="#F26702"/>
</linearGradient>
<linearGradient id="paint1_linear_20_656" x1="20.9162" y1="17.5021" x2="28.4175" y2="19.5155" gradientUnits="userSpaceOnUse">
<stop stop-color="#FFA654"/>
<stop offset="1" stop-color="#F26702"/>
</linearGradient>
</defs>
</svg>
