<svg width="32" height="32" viewBox="0 0 32 32" fill="none" xmlns="http://www.w3.org/2000/svg">
<path d="M27.4998 2V20.2H20.7998V8.70001C20.7998 6.92306 21.5057 5.21887 22.7622 3.96237C24.0187 2.70588 25.7228 2 27.4998 2Z" stroke="black" stroke-width="2" stroke-linecap="round" stroke-linejoin="round"/>
<path d="M23.5996 20.1H27.4996V28.5C27.4996 29.0039 27.2994 29.4872 26.9431 29.8435C26.5868 30.1998 26.1035 30.4 25.5996 30.4H25.4996C24.9957 30.4 24.5124 30.1998 24.1561 29.8435C23.7998 29.4872 23.5996 29.0039 23.5996 28.5V20.1Z" fill="url(#paint0_linear_20_141)" stroke="black" stroke-width="2" stroke-linecap="round" stroke-linejoin="round"/>
<path d="M10.3 30.4C9.69002 30.4 9.10501 30.1577 8.67368 29.7263C8.24234 29.295 8 28.71 8 28.1L9 15.6H11.7L12.7 28.1C12.7003 28.4106 12.6377 28.7181 12.5159 29.0039C12.3941 29.2897 12.2157 29.5478 11.9914 29.7628C11.7671 29.9777 11.5016 30.145 11.2109 30.2545C10.9202 30.364 10.6104 30.4135 10.3 30.4Z" fill="url(#paint1_linear_20_141)" stroke="black" stroke-width="2" stroke-linecap="round" stroke-linejoin="round"/>
<path d="M10.3 15.6C13.2271 15.6 15.6 12.6451 15.6 9C15.6 5.35492 13.2271 2.39999 10.3 2.39999C7.37291 2.39999 5 5.35492 5 9C5 12.6451 7.37291 15.6 10.3 15.6Z" stroke="black" stroke-width="2" stroke-linecap="round" stroke-linejoin="round"/>
<defs>
<linearGradient id="paint0_linear_20_141" x1="23.6132" y1="21.7019" x2="29.666" y2="23.6393" gradientUnits="userSpaceOnUse">
<stop stop-color="#FFA654"/>
<stop offset="1" stop-color="#F26702"/>
</linearGradient>
<linearGradient id="paint1_linear_20_141" x1="8.01634" y1="17.9021" x2="15.5177" y2="19.9155" gradientUnits="userSpaceOnUse">
<stop stop-color="#FFA654"/>
<stop offset="1" stop-color="#F26702"/>
</linearGradient>
</defs>
</svg>
