<svg width="32" height="32" viewBox="0 0 32 32" fill="none" xmlns="http://www.w3.org/2000/svg">
<path d="M29.1479 11.8C29.1631 13.4095 28.6735 14.9832 27.748 16.3C26.8965 15.8581 26.1203 15.2844 25.448 14.6C24.0879 13.3588 23.2632 11.6377 23.1479 9.80002C21.3096 9.58076 19.5912 8.77413 18.248 7.50003C17.5701 6.80646 17.0274 5.99252 16.6479 5.10001C17.9966 4.25377 19.5558 3.80335 21.1479 3.80002C22.2868 3.77973 23.4154 4.01913 24.448 4.50003C26.2136 5.31669 27.6313 6.73444 28.448 8.50003C28.892 9.5446 29.1296 10.6652 29.1479 11.8Z" stroke="black" stroke-width="2" stroke-linecap="round" stroke-linejoin="round"/>
<path d="M26.3477 5.70001C26.3477 5.70001 28.7477 6 29.7477 3" stroke="black" stroke-width="2" stroke-linecap="round" stroke-linejoin="round"/>
<path d="M15.4479 10.4C12.8412 13.5623 9.41689 15.9489 5.54783 17.3C-0.0521722 19.2 1.04782 28.6 8.34782 28.7C15.6478 28.8 18.3478 26.2 22.8478 18.6" fill="url(#paint0_linear_20_182)"/>
<path d="M15.4479 10.4C12.8412 13.5623 9.41689 15.9489 5.54783 17.3C-0.0521722 19.2 1.04782 28.6 8.34782 28.7C15.6478 28.8 18.3478 26.2 22.8478 18.6" stroke="black" stroke-width="2" stroke-linecap="round" stroke-linejoin="round"/>
<defs>
<linearGradient id="paint0_linear_20_182" x1="20.5" y1="14.5" x2="-1.5" y2="31" gradientUnits="userSpaceOnUse">
<stop stop-color="#905CFF"/>
<stop offset="1" stop-color="#4600DA"/>
</linearGradient>
</defs>
</svg>
