<svg width="32" height="32" viewBox="0 0 32 32" fill="none" xmlns="http://www.w3.org/2000/svg">
<path d="M21.6 19.3265C21.6 21.9257 20.5675 24.4183 18.7297 26.2562C16.8918 28.094 14.3991 29.1265 11.8 29.1265C9.20087 29.1265 6.70822 28.094 4.87036 26.2562C3.0325 24.4183 2 21.9257 2 19.3265C2 13.9265 6.39999 4.62653 11.8 4.62653C17.2 4.62653 21.6 13.9265 21.6 19.3265Z" fill="url(#paint0_linear_20_622)" stroke="black" stroke-width="2" stroke-linecap="round" stroke-linejoin="round"/>
<path d="M11.8002 25.0265C14.3407 25.0265 16.4002 22.967 16.4002 20.4265C16.4002 17.886 14.3407 15.8265 11.8002 15.8265C9.25966 15.8265 7.2002 17.886 7.2002 20.4265C7.2002 22.967 9.25966 25.0265 11.8002 25.0265Z" fill="white" stroke="black" stroke-width="2" stroke-linecap="round" stroke-linejoin="round"/>
<path d="M21.2002 3.02647C25.3002 2.52647 29.5002 9.22652 30.0002 13.3265C30.15 14.907 29.8077 16.4952 29.02 17.8736C28.2324 19.252 27.0379 20.3532 25.6002 21.0265" stroke="black" stroke-width="2" stroke-linecap="round" stroke-linejoin="round"/>
<defs>
<linearGradient id="paint0_linear_20_622" x1="21.6" y1="29.1265" x2="-2.30245" y2="10.0046" gradientUnits="userSpaceOnUse">
<stop stop-color="#FFD15C"/>
<stop offset="1" stop-color="#F3AF00"/>
</linearGradient>
</defs>
</svg>
