<svg width="32" height="32" viewBox="0 0 32 32" fill="none" xmlns="http://www.w3.org/2000/svg">
<path d="M18.8766 13.8C18.8766 13.8 19.7766 5.8 15.0766 3C13.579 6.77575 11.4858 10.287 8.87658 13.4C5.17658 17.8 3.97658 25.4 11.8766 29.8C12.862 28.3543 13.6995 26.8133 14.3766 25.2C14.9312 23.0355 15.2992 20.8274 15.4766 18.6C15.4766 18.6 20.7766 23.7 19.7766 29.8C19.7766 29.8 31.7766 24 23.1766 12" fill="url(#paint0_linear_20_547)"/>
<path d="M18.8766 13.8C18.8766 13.8 19.7766 5.8 15.0766 3C13.579 6.77575 11.4858 10.287 8.87658 13.4C5.17658 17.8 3.97658 25.4 11.8766 29.8C12.862 28.3543 13.6995 26.8133 14.3766 25.2C14.9312 23.0355 15.2992 20.8274 15.4766 18.6C15.4766 18.6 20.7766 23.7 19.7766 29.8C19.7766 29.8 31.7766 24 23.1766 12" stroke="black" stroke-width="2" stroke-linecap="round" stroke-linejoin="round"/>
<defs>
<linearGradient id="paint0_linear_20_547" x1="6.07052" y1="7.16808" x2="30.6944" y2="22.9196" gradientUnits="userSpaceOnUse">
<stop stop-color="#FFA654"/>
<stop offset="1" stop-color="#F26702"/>
</linearGradient>
</defs>
</svg>
