<svg width="32" height="32" viewBox="0 0 32 32" fill="none" xmlns="http://www.w3.org/2000/svg">
<path d="M8.60001 14.7C10.5882 14.7 12.2 13.0882 12.2 11.1C12.2 9.11175 10.5882 7.5 8.60001 7.5C6.61178 7.5 5 9.11175 5 11.1C5 13.0882 6.61178 14.7 8.60001 14.7Z" fill="url(#paint0_linear_20_173)" stroke="black" stroke-width="2" stroke-linecap="round" stroke-linejoin="round"/>
<path d="M15.8998 14.7C17.888 14.7 19.4998 13.0882 19.4998 11.1C19.4998 9.11175 17.888 7.5 15.8998 7.5C13.9116 7.5 12.2998 9.11175 12.2998 11.1C12.2998 13.0882 13.9116 14.7 15.8998 14.7Z" fill="url(#paint1_linear_20_173)" stroke="black" stroke-width="2" stroke-linecap="round" stroke-linejoin="round"/>
<path d="M23.2001 14.7C25.1883 14.7 26.8001 13.0882 26.8001 11.1C26.8001 9.11175 25.1883 7.5 23.2001 7.5C21.2118 7.5 19.6001 9.11175 19.6001 11.1C19.6001 13.0882 21.2118 14.7 23.2001 14.7Z" fill="url(#paint2_linear_20_173)" stroke="black" stroke-width="2" stroke-linecap="round" stroke-linejoin="round"/>
<path d="M12.3002 22C14.2884 22 15.9002 20.3882 15.9002 18.4C15.9002 16.4118 14.2884 14.8 12.3002 14.8C10.312 14.8 8.7002 16.4118 8.7002 18.4C8.7002 20.3882 10.312 22 12.3002 22Z" fill="url(#paint3_linear_20_173)" stroke="black" stroke-width="2" stroke-linecap="round" stroke-linejoin="round"/>
<path d="M19.4999 22C21.4881 22 23.0999 20.3882 23.0999 18.4C23.0999 16.4118 21.4881 14.8 19.4999 14.8C17.5117 14.8 15.8999 16.4118 15.8999 18.4C15.8999 20.3882 17.5117 22 19.4999 22Z" fill="url(#paint4_linear_20_173)" stroke="black" stroke-width="2" stroke-linecap="round" stroke-linejoin="round"/>
<path d="M15.8998 28.7C17.888 28.7 19.4998 27.0882 19.4998 25.1C19.4998 23.1118 17.888 21.5 15.8998 21.5C13.9116 21.5 12.2998 23.1118 12.2998 25.1C12.2998 27.0882 13.9116 28.7 15.8998 28.7Z" fill="url(#paint5_linear_20_173)" stroke="black" stroke-width="2" stroke-linecap="round" stroke-linejoin="round"/>
<path d="M15.9002 7.5C15.7741 6.64783 15.8847 5.77737 16.2197 4.98376C16.5548 4.19016 17.1016 3.50392 17.8002 3" stroke="black" stroke-width="2" stroke-linecap="round" stroke-linejoin="round"/>
<defs>
<linearGradient id="paint0_linear_20_173" x1="12.2" y1="14.7" x2="5" y2="7.5" gradientUnits="userSpaceOnUse">
<stop stop-color="#773BF5" stop-opacity="0"/>
<stop offset="1" stop-color="#4600DA"/>
</linearGradient>
<linearGradient id="paint1_linear_20_173" x1="19.4998" y1="14.7" x2="12.2998" y2="7.49997" gradientUnits="userSpaceOnUse">
<stop stop-color="#773BF5" stop-opacity="0"/>
<stop offset="1" stop-color="#4600DA"/>
</linearGradient>
<linearGradient id="paint2_linear_20_173" x1="26.8001" y1="14.7" x2="19.6001" y2="7.5" gradientUnits="userSpaceOnUse">
<stop stop-color="#773BF5" stop-opacity="0"/>
<stop offset="1" stop-color="#4600DA"/>
</linearGradient>
<linearGradient id="paint3_linear_20_173" x1="15.9002" y1="22" x2="8.7002" y2="14.8" gradientUnits="userSpaceOnUse">
<stop stop-color="#773BF5" stop-opacity="0"/>
<stop offset="1" stop-color="#4600DA"/>
</linearGradient>
<linearGradient id="paint4_linear_20_173" x1="23.0999" y1="22" x2="15.8999" y2="14.8" gradientUnits="userSpaceOnUse">
<stop stop-color="#773BF5" stop-opacity="0"/>
<stop offset="1" stop-color="#4600DA"/>
</linearGradient>
<linearGradient id="paint5_linear_20_173" x1="19.4998" y1="28.7" x2="12.2998" y2="21.5" gradientUnits="userSpaceOnUse">
<stop stop-color="#773BF5" stop-opacity="0"/>
<stop offset="1" stop-color="#4600DA"/>
</linearGradient>
</defs>
</svg>
