<svg width="32" height="32" viewBox="0 0 32 32" fill="none" xmlns="http://www.w3.org/2000/svg">
<path d="M27.7556 10.6974C29.3567 9.09628 29.3568 6.50031 27.7556 4.89916C26.1545 3.29801 23.5585 3.29799 21.9573 4.89914L5.09988 21.7566C3.49873 23.3577 3.49875 25.9537 5.0999 27.5549C6.70105 29.156 9.29701 29.156 10.8982 27.5548L27.7556 10.6974Z" fill="url(#paint0_linear_20_149)" stroke="black" stroke-width="2" stroke-linecap="round" stroke-linejoin="round"/>
<path d="M21.7997 5.10212L5.04128 21.8606C4.23487 21.0541 3.78181 19.9604 3.78181 18.82C3.78181 17.6796 4.23483 16.5858 5.04123 15.7794L15.6478 5.17281C16.0436 4.75818 16.5183 4.4269 17.044 4.19838C17.5697 3.96986 18.1357 3.84872 18.7089 3.84213C19.2821 3.83554 19.8507 3.94361 20.3815 4.15999C20.9123 4.37637 21.3945 4.69669 21.7997 5.10212Z" stroke="black" stroke-width="2" stroke-linecap="round" stroke-linejoin="round"/>
<path d="M10.9546 27.6804L27.713 10.922C28.5194 11.7284 28.9725 12.8222 28.9725 13.9626C28.9725 15.103 28.5194 16.1967 27.713 17.0031L17.1064 27.6097C16.3 28.4161 15.2063 28.8692 14.0659 28.8692C12.9254 28.8692 11.8317 28.4161 11.0253 27.6097L10.9546 27.6804Z" stroke="black" stroke-width="2" stroke-linecap="round" stroke-linejoin="round"/>
<path d="M7.82715 23.6138C9.82715 21.6138 11.2272 23.0138 13.2272 21.1138C15.2272 19.2138 13.7272 17.7138 15.7272 15.7138C17.7272 13.7138 19.1272 15.1138 21.1272 13.2138C23.1272 11.3138 21.6272 9.81381 23.6272 7.81381" stroke="black" stroke-width="2" stroke-linecap="round" stroke-linejoin="round"/>
<defs>
<linearGradient id="paint0_linear_20_149" x1="2.17024" y1="24.6782" x2="13.95" y2="32.613" gradientUnits="userSpaceOnUse">
<stop stop-color="#FF7DAC"/>
<stop offset="1" stop-color="#FF0440"/>
</linearGradient>
</defs>
</svg>
