<svg width="32" height="32" viewBox="0 0 32 32" fill="none" xmlns="http://www.w3.org/2000/svg">
<path d="M22 2V2.39996C22 3.96474 21.3784 5.46543 20.2719 6.5719C19.1655 7.67836 17.6648 8.29999 16.1 8.29999V7.89996C16.1 6.33519 16.7216 4.83449 17.8281 3.72803C18.9345 2.62156 20.4352 2 22 2Z" stroke="black" stroke-width="2" stroke-linejoin="round"/>
<path d="M8 13H25L26 21H7L8 13Z" fill="url(#paint0_linear_20_302)"/>
<path d="M3.09998 26.3H29.8C29.8 27.2813 29.4102 28.2224 28.7163 28.9163C28.0224 29.6102 27.0813 30 26.1 30H6.70001C5.71871 30 4.77756 29.6102 4.08368 28.9163C3.38979 28.2224 3 27.2813 3 26.3H3.09998Z" stroke="black" stroke-width="2" stroke-linecap="round" stroke-linejoin="round"/>
<path d="M13.0999 14.1C12.8891 13.5034 12.4952 12.9887 11.9744 12.6295C11.4535 12.2703 10.8324 12.0849 10.1999 12.1C9.41804 12.121 8.67096 12.4276 8.09979 12.9619C7.52863 13.4963 7.1729 14.2213 7.09985 15L5.8999 21.8" stroke="black" stroke-width="2" stroke-linecap="round" stroke-linejoin="round"/>
<path d="M19.7002 14.1C19.9349 13.5194 20.3347 13.0205 20.8502 12.665C21.3657 12.3095 21.9741 12.113 22.6002 12.1C23.382 12.121 24.1291 12.4276 24.7003 12.9619C25.2714 13.4963 25.6272 14.2213 25.7002 15L26.9002 21.8" stroke="black" stroke-width="2" stroke-linecap="round" stroke-linejoin="round"/>
<path d="M20.5002 22.5L19.8002 15C19.7037 14.1596 19.3062 13.3827 18.6812 12.8128C18.0561 12.2429 17.2459 11.9186 16.4002 11.9C15.5373 11.8943 14.7026 12.2077 14.0566 12.7798C13.4106 13.352 12.9988 14.1427 12.9002 15L12.2002 22.5" fill="url(#paint1_linear_20_302)"/>
<path d="M20.5002 22.5L19.8002 15C19.7037 14.1596 19.3062 13.3827 18.6812 12.8128C18.0561 12.2429 17.2459 11.9186 16.4002 11.9C15.5373 11.8943 14.7026 12.2077 14.0566 12.7798C13.4106 13.352 12.9988 14.1427 12.9002 15L12.2002 22.5" stroke="black" stroke-width="2" stroke-linecap="round" stroke-linejoin="round"/>
<defs>
<linearGradient id="paint0_linear_20_302" x1="7.5" y1="24.5" x2="7.40052" y2="10.5937" gradientUnits="userSpaceOnUse">
<stop stop-color="#FF7DAC"/>
<stop offset="1" stop-color="#FF0440"/>
</linearGradient>
<linearGradient id="paint1_linear_20_302" x1="12.1945" y1="22.5124" x2="22.9957" y2="16.0673" gradientUnits="userSpaceOnUse">
<stop stop-color="#FF7DAC"/>
<stop offset="1" stop-color="#FF0440"/>
</linearGradient>
</defs>
</svg>
