<svg width="32" height="32" viewBox="0 0 32 32" fill="none" xmlns="http://www.w3.org/2000/svg">
<path d="M29.2 14C29.2 18.0313 27.5986 21.8975 24.748 24.748C21.8975 27.5986 18.0313 29.2 14 29.2C9.86889 29.1836 5.91295 27.5293 3 24.6L5.89999 21.7L21.7 5.89999L24.5 3C25.9821 4.42386 27.162 6.13172 27.9695 8.02164C28.7771 9.91156 29.1955 11.9448 29.2 14Z" fill="url(#paint0_linear_20_395)" stroke="black" stroke-width="2" stroke-linecap="round" stroke-linejoin="round"/>
<path d="M25.1999 14C25.1929 16.2342 24.5179 18.4152 23.2617 20.2627C22.0054 22.1102 20.2254 23.5398 18.1502 24.3677C16.0751 25.1956 13.7998 25.384 11.6168 24.9086C9.43381 24.4332 7.44286 23.3158 5.8999 21.7L21.6999 5.89999C22.8014 6.94278 23.6796 8.19843 24.2812 9.59079C24.8828 10.9832 25.1954 12.4832 25.1999 14Z" fill="white" stroke="black" stroke-width="2" stroke-linecap="round" stroke-linejoin="round"/>
<path d="M13.7002 13.9L21.8002 22" stroke="black" stroke-width="2" stroke-linecap="round" stroke-linejoin="round"/>
<path d="M13.7002 13.9V25.2" stroke="black" stroke-width="2" stroke-linecap="round" stroke-linejoin="round"/>
<path d="M13.7002 13.9H25.2002" stroke="black" stroke-width="2" stroke-linecap="round" stroke-linejoin="round"/>
<defs>
<linearGradient id="paint0_linear_20_395" x1="29.2" y1="29.2" x2="3" y2="3" gradientUnits="userSpaceOnUse">
<stop stop-color="#FFD15C"/>
<stop offset="1" stop-color="#F3AF00"/>
</linearGradient>
</defs>
</svg>
