<svg width="32" height="32" viewBox="0 0 32 32" fill="none" xmlns="http://www.w3.org/2000/svg">
<path d="M21.919 5.72232C23.1125 5.0195 24.5362 4.81957 25.8771 5.16651C27.218 5.51345 28.3662 6.37886 29.069 7.57233C29.7718 8.76581 29.9717 10.1896 29.6248 11.5305C29.2779 12.8713 28.4124 14.0195 27.219 14.7223C26.3995 15.1972 25.4659 15.4392 24.519 15.4223H7.31901C6.09184 15.4655 4.89024 15.0645 3.93498 14.293C2.97972 13.5214 2.33493 12.4311 2.119 11.2223C1.97306 10.5586 1.96122 9.87244 2.08421 9.20411C2.20719 8.53577 2.46248 7.89876 2.83512 7.33048C3.20777 6.7622 3.69027 6.2741 4.25419 5.8949C4.81812 5.5157 5.45213 5.25304 6.119 5.12232C7.48367 4.85583 8.89841 5.1363 10.0582 5.90326C11.218 6.67023 12.03 7.86225 12.319 9.22232" fill="url(#paint0_linear_20_732)"/>
<path d="M21.919 5.72232C23.1125 5.0195 24.5362 4.81957 25.8771 5.16651C27.218 5.51345 28.3662 6.37886 29.069 7.57233C29.7718 8.76581 29.9717 10.1896 29.6248 11.5305C29.2779 12.8713 28.4124 14.0195 27.219 14.7223C26.3995 15.1972 25.4659 15.4392 24.519 15.4223H7.31901C6.09184 15.4655 4.89024 15.0645 3.93498 14.293C2.97972 13.5214 2.33493 12.4311 2.119 11.2223C1.97306 10.5586 1.96122 9.87244 2.08421 9.20411C2.20719 8.53577 2.46248 7.89876 2.83512 7.33048C3.20777 6.7622 3.69027 6.2741 4.25419 5.8949C4.81812 5.5157 5.45213 5.25304 6.119 5.12232C7.48367 4.85583 8.89841 5.1363 10.0582 5.90326C11.218 6.67023 12.03 7.86225 12.319 9.22232" stroke="black" stroke-width="2" stroke-linecap="round" stroke-linejoin="round"/>
<path d="M14.1191 5.32231C14.7618 5.08694 15.4453 4.98334 16.1288 5.01769C16.8124 5.05203 17.4821 5.2236 18.098 5.5222C18.7138 5.8208 19.2633 6.2403 19.7136 6.75572C20.1639 7.27114 20.5059 7.87193 20.7191 8.52229" stroke="black" stroke-width="2" stroke-miterlimit="10" stroke-linecap="round"/>
<path d="M28.819 13.4223V25.4223C28.819 25.9528 28.6082 26.4615 28.2332 26.8365C27.8581 27.2116 27.3494 27.4223 26.819 27.4223H4.91895C4.38851 27.4223 3.87983 27.2116 3.50476 26.8365C3.12969 26.4615 2.91895 25.9528 2.91895 25.4223V13.4223" stroke="black" stroke-width="2" stroke-linecap="round" stroke-linejoin="round"/>
<defs>
<linearGradient id="paint0_linear_20_732" x1="14.5" y1="5" x2="14.953" y2="15.5188" gradientUnits="userSpaceOnUse">
<stop offset="0.303663" stop-color="#FFD15C" stop-opacity="0"/>
<stop offset="0.781822" stop-color="#F3AF00"/>
</linearGradient>
</defs>
</svg>
