<svg width="32" height="32" viewBox="0 0 32 32" fill="none" xmlns="http://www.w3.org/2000/svg">
<path d="M16.9423 6.99804C17.4208 5.59322 18.411 4.42029 19.7157 3.71306C21.0203 3.00583 22.5437 2.81625 23.9819 3.18212C25.4201 3.54799 26.6677 4.44242 27.4758 5.68712C28.284 6.93183 28.5933 8.43537 28.3423 9.89803C28.0951 10.9681 27.5387 11.9418 26.7423 12.698H26.8423L12.9423 26.398H13.0423C12.0077 27.4181 10.6331 28.0206 9.1819 28.09C7.73066 28.1594 6.30481 27.6909 5.17757 26.7743C4.05033 25.8576 3.30102 24.5572 3.07308 23.1223C2.84514 21.6874 3.15465 20.2189 3.94234 18.998C4.36571 18.3571 4.91212 17.8067 5.54995 17.3787C6.18777 16.9506 6.90429 16.6536 7.65786 16.5047C8.41142 16.3559 9.18706 16.3582 9.93972 16.5116C10.6924 16.6649 11.4071 16.9662 12.0423 17.398" fill="url(#paint0_linear_20_13)"/>
<path d="M16.9423 6.99804C17.4208 5.59322 18.411 4.42029 19.7157 3.71306C21.0203 3.00583 22.5437 2.81625 23.9819 3.18212C25.4201 3.54799 26.6677 4.44242 27.4758 5.68712C28.284 6.93183 28.5933 8.43537 28.3423 9.89803C28.0951 10.9681 27.5387 11.9418 26.7423 12.698H26.8423L12.9423 26.398H13.0423C12.0077 27.4181 10.6331 28.0206 9.1819 28.09C7.73066 28.1594 6.30481 27.6909 5.17757 26.7743C4.05033 25.8576 3.30102 24.5572 3.07308 23.1223C2.84514 21.6874 3.15465 20.2189 3.94234 18.998C4.36571 18.3571 4.91212 17.8067 5.54995 17.3787C6.18777 16.9506 6.90429 16.6536 7.65786 16.5047C8.41142 16.3559 9.18706 16.3582 9.93972 16.5116C10.6924 16.6649 11.4071 16.9662 12.0423 17.398" stroke="black" stroke-width="2" stroke-linecap="round" stroke-linejoin="round"/>
<path d="M10.4424 12.8981C10.7735 12.2053 11.2388 11.5851 11.8115 11.0736C12.3841 10.5621 13.0526 10.1693 13.7782 9.91817C14.5038 9.667 15.272 9.56241 16.0383 9.61046C16.8047 9.6585 17.5538 9.85822 18.2424 10.198" stroke="black" stroke-width="2" stroke-miterlimit="10" stroke-linecap="round"/>
<defs>
<linearGradient id="paint0_linear_20_13" x1="5" y1="12.5" x2="20" y2="24" gradientUnits="userSpaceOnUse">
<stop offset="0.402472" stop-color="#FFD15C" stop-opacity="0"/>
<stop offset="0.889564" stop-color="#F3AF00"/>
</linearGradient>
</defs>
</svg>
