<svg width="32" height="32" viewBox="0 0 32 32" fill="none" xmlns="http://www.w3.org/2000/svg">
<path d="M4.6001 17.9C4.6001 21.1091 5.87491 24.1868 8.1441 26.456C10.4133 28.7252 13.491 30 16.7001 30C19.9092 30 22.9869 28.7252 25.2561 26.456C27.5253 24.1868 28.8001 21.1091 28.8001 17.9H4.6001Z" fill="url(#paint0_linear_20_610)" stroke="black" stroke-width="2" stroke-linecap="round" stroke-linejoin="round"/>
<path d="M7.1001 13.8C7.2773 12.5069 7.91683 11.3218 8.90038 10.4638C9.88392 9.60585 11.1449 9.13315 12.4501 9.13315C13.7553 9.13315 15.0163 9.60585 15.9998 10.4638C16.9834 11.3218 17.6229 12.5069 17.8001 13.8" fill="url(#paint1_linear_20_610)"/>
<path d="M7.1001 13.8C7.2773 12.5069 7.91683 11.3218 8.90038 10.4638C9.88392 9.60585 11.1449 9.13315 12.4501 9.13315C13.7553 9.13315 15.0163 9.60585 15.9998 10.4638C16.9834 11.3218 17.6229 12.5069 17.8001 13.8" stroke="black" stroke-width="2" stroke-linecap="round" stroke-linejoin="round"/>
<path d="M14.2998 8.5C15.0258 7.67876 15.9188 7.02199 16.919 6.57361C17.9193 6.12523 19.0037 5.89557 20.0998 5.9C21.1326 5.89991 22.1551 6.10493 23.108 6.50316C24.0609 6.90139 24.9253 7.48488 25.6509 8.2198C26.3765 8.95473 26.949 9.82644 27.335 10.7843C27.7211 11.7423 27.9131 12.7673 27.8998 13.8" stroke="black" stroke-width="2" stroke-linecap="round" stroke-linejoin="round"/>
<path d="M16.8999 10.9C17.6801 10.2364 18.6759 9.88076 19.6999 9.89999C20.8497 9.89969 21.954 10.3495 22.7763 11.1532C23.5987 11.9568 24.0738 13.0505 24.0999 14.2" stroke="black" stroke-width="2" stroke-linecap="round" stroke-linejoin="round"/>
<path d="M10.8002 8.8L4.7002 3" stroke="black" stroke-width="2" stroke-linecap="round" stroke-linejoin="round"/>
<path d="M7.5 11.8L4 8.5" stroke="black" stroke-width="2" stroke-linecap="round" stroke-linejoin="round"/>
<defs>
<linearGradient id="paint0_linear_20_610" x1="4.58347" y1="30.0142" x2="17.4353" y2="10.4265" gradientUnits="userSpaceOnUse">
<stop stop-color="#FF7DAC"/>
<stop offset="1" stop-color="#FF0440"/>
</linearGradient>
<linearGradient id="paint1_linear_20_610" x1="7.09275" y1="13.8055" x2="11.7518" y2="5.66503" gradientUnits="userSpaceOnUse">
<stop stop-color="#FF7DAC"/>
<stop offset="1" stop-color="#FF0440"/>
</linearGradient>
</defs>
</svg>
