<svg width="32" height="32" viewBox="0 0 32 32" fill="none" xmlns="http://www.w3.org/2000/svg">
<path d="M15.8 20.8492C15.8179 21.3215 15.8849 21.7907 16 22.2492C16.4193 23.6478 16.2758 25.1549 15.6 26.4492C15.0547 27.4345 14.2589 28.2585 13.2933 28.8379C12.3276 29.4173 11.2261 29.7317 10.1 29.7492C8.98652 29.7348 7.89744 29.4207 6.94724 28.8401C5.99704 28.2594 5.22077 27.4335 4.69999 26.4492C4.03775 25.1536 3.86042 23.664 4.19999 22.2492L4.50004 20.8492C5.70004 14.3492 5.70004 17.4492 4.50004 10.9492L4.19999 9.6492C3.96302 8.74671 3.93626 7.80188 4.12174 6.88742C4.30722 5.97296 4.69999 5.11325 5.26987 4.37442C5.83975 3.63559 6.57154 3.03734 7.40891 2.6257C8.24628 2.21406 9.16693 2 10.1 2C11.0331 2 11.9537 2.21406 12.7911 2.6257C13.6285 3.03734 14.3603 3.63559 14.9302 4.37442C15.5 5.11325 15.8928 5.97296 16.0783 6.88742C16.2638 7.80188 16.237 8.74671 16 9.6492C15.8851 10.0737 15.818 10.5098 15.8 10.9492C14.6 17.2492 14.6 14.6492 15.8 20.8492Z" fill="url(#paint0_linear_20_390)" stroke="black" stroke-width="2" stroke-linecap="round" stroke-linejoin="round"/>
<path d="M21.3001 21.7492C22.7309 21.0209 23.9918 19.9986 25.0001 18.7492C28.2001 15.2492 28.9001 10.8492 26.8001 8.94918C24.7001 7.04918 21.9001 8.14918 19.1001 10.4492" stroke="black" stroke-width="2" stroke-linecap="round" stroke-linejoin="round"/>
<path d="M27.2002 9.74918L19.7002 16.2492" stroke="black" stroke-width="2" stroke-linecap="round" stroke-linejoin="round"/>
<defs>
<linearGradient id="paint0_linear_20_390" x1="17.5342" y1="30.6499" x2="-4.12312" y2="21.736" gradientUnits="userSpaceOnUse">
<stop stop-color="#9C6060"/>
<stop offset="1" stop-color="#9B5139"/>
</linearGradient>
</defs>
</svg>
