<svg width="32" height="32" viewBox="0 0 32 32" fill="none" xmlns="http://www.w3.org/2000/svg">
<path d="M10.3 28.9C14.3317 28.9 17.6 25.6317 17.6 21.6C17.6 17.5683 14.3317 14.3 10.3 14.3C6.26831 14.3 3 17.5683 3 21.6C3 25.6317 6.26831 28.9 10.3 28.9Z" fill="url(#paint0_linear_20_133)" stroke="black" stroke-width="2" stroke-linecap="round" stroke-linejoin="round"/>
<path d="M20 14.8C20.8302 14.4805 21.7105 14.3112 22.6 14.3C24.5361 14.3 26.3928 15.0691 27.7618 16.4381C29.1309 17.8071 29.9 19.6639 29.9 21.6C29.9 23.5361 29.1309 25.3928 27.7618 26.7618C26.3928 28.1309 24.5361 28.9 22.6 28.9C21.7532 28.872 20.9132 28.7377 20.1 28.5" fill="url(#paint1_linear_20_133)"/>
<path d="M20 14.8C20.8302 14.4805 21.7105 14.3112 22.6 14.3C24.5361 14.3 26.3928 15.0691 27.7618 16.4381C29.1309 17.8071 29.9 19.6639 29.9 21.6C29.9 23.5361 29.1309 25.3928 27.7618 26.7618C26.3928 28.1309 24.5361 28.9 22.6 28.9C21.7532 28.872 20.9132 28.7377 20.1 28.5" stroke="black" stroke-width="2" stroke-linecap="round" stroke-linejoin="round"/>
<path d="M9.2002 10.2C9.22648 8.28128 10.0072 6.45009 11.3734 5.10263C12.7395 3.75517 14.5814 2.99982 16.5002 3C18.4098 3 20.2411 3.75856 21.5914 5.10883C22.9416 6.45909 23.7002 8.29042 23.7002 10.2" stroke="black" stroke-width="2" stroke-linecap="round" stroke-linejoin="round"/>
<path d="M9.19977 21.9C10.2491 21.9 11.0998 21.0493 11.0998 20C11.0998 18.9507 10.2491 18.1 9.19977 18.1C8.15043 18.1 7.2998 18.9507 7.2998 20C7.2998 21.0493 8.15043 21.9 9.19977 21.9Z" stroke="black" stroke-width="2" stroke-linecap="round" stroke-linejoin="round"/>
<path d="M24.1002 23.8C25.1496 23.8 26.0002 22.9493 26.0002 21.9C26.0002 20.8506 25.1496 20 24.1002 20C23.0509 20 22.2002 20.8506 22.2002 21.9C22.2002 22.9493 23.0509 23.8 24.1002 23.8Z" stroke="black" stroke-width="2" stroke-linecap="round" stroke-linejoin="round"/>
<path d="M16.5001 10C17.5495 10 18.4001 9.14932 18.4001 8.09998C18.4001 7.05063 17.5495 6.19998 16.5001 6.19998C15.4508 6.19998 14.6001 7.05063 14.6001 8.09998C14.6001 9.14932 15.4508 10 16.5001 10Z" stroke="black" stroke-width="2" stroke-linecap="round" stroke-linejoin="round"/>
<defs>
<linearGradient id="paint0_linear_20_133" x1="10.3" y1="14.3" x2="10.4681" y2="30.6003" gradientUnits="userSpaceOnUse">
<stop offset="0.30668" stop-color="#7CF997"/>
<stop offset="1" stop-color="#42CE60"/>
</linearGradient>
<linearGradient id="paint1_linear_20_133" x1="12.5" y1="21" x2="30" y2="22" gradientUnits="userSpaceOnUse">
<stop offset="0.453324" stop-color="#7CF997" stop-opacity="0"/>
<stop offset="0.93293" stop-color="#42CE60"/>
</linearGradient>
</defs>
</svg>
