<svg width="32" height="32" viewBox="0 0 32 32" fill="none" xmlns="http://www.w3.org/2000/svg">
<path d="M22.5 10L23.5 13.5L15 14V22L14 22.5L12 21.5L9 20L7.5 18.5L6.5 15.5L6 12.5L8 9L9 7L13 5.5H16L19 6.5L22.5 10Z" fill="url(#paint0_linear_20_362)" stroke="black"/>
<path d="M18.5 26V18L26.5 17.5V18.5L25.5 21.5L22 24.5L18.5 26Z" fill="url(#paint1_linear_20_362)" stroke="black"/>
<path d="M14.9001 25.8C12.5509 25.7803 10.26 25.0656 8.31629 23.7461C6.37255 22.4265 4.86286 20.5611 3.97749 18.385C3.09213 16.2089 2.87068 13.8195 3.34108 11.5177C3.81147 9.21597 4.95265 7.10496 6.62081 5.4507C8.28897 3.79645 10.4095 2.67297 12.7151 2.22185C15.0207 1.77073 17.4082 2.01215 19.5768 2.9157C21.7455 3.81925 23.5981 5.34449 24.9013 7.29921C26.2045 9.25393 26.9 11.5507 26.9001 13.9" stroke="black" stroke-width="2" stroke-linecap="round" stroke-linejoin="round"/>
<path d="M14.8999 22.4C13.2188 22.4 11.5754 21.9015 10.1776 20.9675C8.77974 20.0335 7.69027 18.706 7.04693 17.1528C6.40358 15.5996 6.23526 13.8906 6.56323 12.2417C6.89121 10.5929 7.70076 9.07833 8.8895 7.88959C10.0782 6.70084 11.5928 5.8913 13.2416 5.56332C14.8905 5.23535 16.5995 5.40368 18.1527 6.04703C19.7059 6.69037 21.0334 7.77982 21.9674 9.17764C22.9014 10.5755 23.3999 12.2189 23.3999 13.9" stroke="black" stroke-width="2" stroke-linecap="round" stroke-linejoin="round"/>
<path d="M14.8999 2V25.8" stroke="black" stroke-width="2" stroke-linecap="round" stroke-linejoin="round"/>
<path d="M3 13.9H26.9" stroke="black" stroke-width="2" stroke-linecap="round" stroke-linejoin="round"/>
<path d="M18.5 17.6H30C29.3 23.9 25.3 27.9 18.6 29.1L18.5 17.6Z" stroke="black" stroke-width="2" stroke-linejoin="round"/>
<path d="M21.8999 21.9C22.4522 21.9 22.8999 21.4523 22.8999 20.9C22.8999 20.3477 22.4522 19.9 21.8999 19.9C21.3476 19.9 20.8999 20.3477 20.8999 20.9C20.8999 21.4523 21.3476 21.9 21.8999 21.9Z" fill="black"/>
<path d="M11.5 18.3C12.0523 18.3 12.5 17.8523 12.5 17.3C12.5 16.7477 12.0523 16.3 11.5 16.3C10.9477 16.3 10.5 16.7477 10.5 17.3C10.5 17.8523 10.9477 18.3 11.5 18.3Z" fill="black"/>
<path d="M11.5 11.6C12.0523 11.6 12.5 11.1523 12.5 10.6C12.5 10.0477 12.0523 9.60001 11.5 9.60001C10.9477 9.60001 10.5 10.0477 10.5 10.6C10.5 11.1523 10.9477 11.6 11.5 11.6Z" fill="black"/>
<path d="M18.5 11.6C19.0523 11.6 19.5 11.1523 19.5 10.6C19.5 10.0477 19.0523 9.60001 18.5 9.60001C17.9477 9.60001 17.5 10.0477 17.5 10.6C17.5 11.1523 17.9477 11.6 18.5 11.6Z" fill="black"/>
<path d="M30.0001 17.6C29.3001 23.9 25.3001 27.9 18.6001 29.1" stroke="black" stroke-width="2" stroke-linejoin="round"/>
<path d="M26.6999 18.2C25.8999 22.7 22.7999 25.4 17.8999 25.9" stroke="black" stroke-width="2" stroke-linejoin="round"/>
<defs>
<linearGradient id="paint0_linear_20_362" x1="6.06086" y1="8.14393" x2="23.1006" y2="22.9716" gradientUnits="userSpaceOnUse">
<stop stop-color="#FFA654"/>
<stop offset="1" stop-color="#F26702"/>
</linearGradient>
<linearGradient id="paint1_linear_20_362" x1="18.5278" y1="18.822" x2="26.9101" y2="25.4909" gradientUnits="userSpaceOnUse">
<stop stop-color="#FFA654"/>
<stop offset="1" stop-color="#F26702"/>
</linearGradient>
</defs>
</svg>
