<svg width="32" height="32" viewBox="0 0 32 32" fill="none" xmlns="http://www.w3.org/2000/svg">
<path d="M25.6602 9.89868L21.4175 5.65604C21.2223 5.46078 20.9057 5.46078 20.7104 5.65604L5.69147 20.675C5.49621 20.8702 5.49621 21.1868 5.69147 21.3821L9.93411 25.6247C10.1294 25.82 10.446 25.82 10.6412 25.6247L25.6602 10.6058C25.8554 10.4105 25.8554 10.0939 25.6602 9.89868Z" fill="url(#paint0_linear_20_594)" stroke="black" stroke-width="2" stroke-linecap="round" stroke-linejoin="round"/>
<path d="M6.31339 21.8493L9.42466 24.9606L6.66692 27.7183C6.47192 27.9133 6.24041 28.068 5.98562 28.1735C5.73084 28.2791 5.45777 28.3334 5.18199 28.3334C4.90622 28.3334 4.63317 28.2791 4.37839 28.1735C4.1236 28.068 3.89209 27.9133 3.69709 27.7183L3.48496 27.5062C3.28996 27.3112 3.13526 27.0796 3.02973 26.8249C2.92419 26.5701 2.86987 26.297 2.86987 26.0213C2.86987 25.7455 2.92417 25.4724 3.02971 25.2176C3.13524 24.9628 3.28994 24.7313 3.48494 24.5363L6.24268 21.7786L6.31339 21.8493Z" stroke="black" stroke-width="2" stroke-linecap="round" stroke-linejoin="round"/>
<path d="M25.1554 9.35393L22.0441 6.24264L24.8018 3.48493C24.9968 3.28993 25.2283 3.13523 25.4831 3.02969C25.7379 2.92416 26.0109 2.86984 26.2867 2.86984C26.5625 2.86984 26.8356 2.92418 27.0904 3.02972C27.3452 3.13525 27.5766 3.2899 27.7716 3.48491L27.9838 3.69707C28.1788 3.89208 28.3335 4.12355 28.439 4.37833C28.5445 4.63311 28.5989 4.90623 28.5989 5.182C28.5989 5.45778 28.5446 5.73083 28.439 5.98561C28.3335 6.2404 28.1788 6.47191 27.9838 6.66691L25.2261 9.42462L25.1554 9.35393Z" stroke="black" stroke-width="2" stroke-linecap="round" stroke-linejoin="round"/>
<defs>
<linearGradient id="paint0_linear_20_594" x1="18.6354" y1="7.7655" x2="24.4402" y2="17.779" gradientUnits="userSpaceOnUse">
<stop stop-color="#FFA654"/>
<stop offset="1" stop-color="#F26702"/>
</linearGradient>
</defs>
</svg>
