<svg width="32" height="32" viewBox="0 0 32 32" fill="none" xmlns="http://www.w3.org/2000/svg">
<path d="M18.3002 5V19.6H14.2002V5C14.2002 4.46957 14.4109 3.96086 14.786 3.58578C15.1611 3.21071 15.6698 3 16.2002 3H16.3002C16.8307 3 17.3393 3.21071 17.7144 3.58578C18.0895 3.96086 18.3002 4.46957 18.3002 5Z" stroke="black" stroke-width="2" stroke-linecap="round" stroke-linejoin="round"/>
<path d="M14.1999 14L4.3999 8.10001" stroke="black" stroke-width="2" stroke-linecap="round" stroke-linejoin="round"/>
<path d="M18.2998 14L28.0998 8.10001" stroke="black" stroke-width="2" stroke-linecap="round" stroke-linejoin="round"/>
<path d="M18.3 14H30.5V18.4H22.5" fill="url(#paint0_linear_20_724)"/>
<path d="M10 18.4H2V14H14.2" fill="url(#paint1_linear_20_724)"/>
<path d="M28.8 18.4L27.8 29.6H4.70001L3.70001 18.4" fill="url(#paint2_linear_20_724)"/>
<path d="M18.3 14H30.5V18.4H22.5M10 18.4H2V14H14.2M28.8 18.4L27.8 29.6H4.70001L3.70001 18.4" stroke="black" stroke-width="2" stroke-linecap="round" stroke-linejoin="round"/>
<defs>
<linearGradient id="paint0_linear_20_724" x1="22.5" y1="30" x2="22.725" y2="17.144" gradientUnits="userSpaceOnUse">
<stop stop-color="#773BF5"/>
<stop offset="0.0001" stop-color="#773BF5"/>
<stop offset="0.815372" stop-color="#773BF5" stop-opacity="0"/>
</linearGradient>
<linearGradient id="paint1_linear_20_724" x1="22.5" y1="30" x2="22.725" y2="17.144" gradientUnits="userSpaceOnUse">
<stop stop-color="#773BF5"/>
<stop offset="0.0001" stop-color="#773BF5"/>
<stop offset="0.815372" stop-color="#773BF5" stop-opacity="0"/>
</linearGradient>
<linearGradient id="paint2_linear_20_724" x1="22.5" y1="30" x2="22.725" y2="17.144" gradientUnits="userSpaceOnUse">
<stop stop-color="#773BF5"/>
<stop offset="0.0001" stop-color="#773BF5"/>
<stop offset="0.815372" stop-color="#773BF5" stop-opacity="0"/>
</linearGradient>
</defs>
</svg>
