<svg width="32" height="32" viewBox="0 0 32 32" fill="none" xmlns="http://www.w3.org/2000/svg">
<path d="M12.6 2H24.2C25.5526 2 26.8498 2.53734 27.8062 3.49377C28.7627 4.45021 29.3 5.74743 29.3 7.10004H13C10.0826 7.10004 7.28472 8.25894 5.22182 10.3218C3.15892 12.3847 2 15.1827 2 18.1C2 21.0174 3.15892 23.8153 5.22182 25.8782C7.28472 27.9411 10.0826 29.1 13 29.1H27.8V22.8L19.1 25.6C18.0381 25.9601 16.9209 26.1294 15.8 26.1C14.5176 26.1003 13.2862 25.5978 12.3701 24.7004C11.4539 23.803 10.9262 22.5821 10.9 21.3C10.9 20.0004 11.4162 18.7541 12.3352 17.8352C13.2541 16.9163 14.5004 16.4 15.8 16.4H20C22.4665 16.4 24.832 15.4202 26.5761 13.6761C28.3202 11.932 29.3 9.56655 29.3 7.10004" fill="url(#paint0_linear_20_759)"/>
<path d="M12.6 2H24.2C25.5526 2 26.8498 2.53734 27.8062 3.49377C28.7627 4.45021 29.3 5.74743 29.3 7.10004M29.3 7.10004H13C10.0826 7.10004 7.28472 8.25894 5.22182 10.3218C3.15892 12.3847 2 15.1827 2 18.1C2 21.0174 3.15892 23.8153 5.22182 25.8782C7.28472 27.9411 10.0826 29.1 13 29.1H27.8V22.8L19.1 25.6C18.0381 25.9601 16.9209 26.1294 15.8 26.1C14.5176 26.1003 13.2862 25.5978 12.3701 24.7004C11.4539 23.803 10.9262 22.5821 10.9 21.3C10.9 20.0004 11.4162 18.7541 12.3352 17.8352C13.2541 16.9163 14.5004 16.4 15.8 16.4H20C22.4665 16.4 24.832 15.4202 26.5761 13.6761C28.3202 11.932 29.3 9.56655 29.3 7.10004Z" stroke="black" stroke-width="2" stroke-linecap="round" stroke-linejoin="round"/>
<path d="M14.7002 7.10004V16.5" stroke="black" stroke-width="2" stroke-linecap="round" stroke-linejoin="round"/>
<path d="M4.5 11.1L11.8 18.4" stroke="black" stroke-width="2" stroke-linecap="round" stroke-linejoin="round"/>
<path d="M3 22.7H11.1" stroke="black" stroke-width="2" stroke-linecap="round" stroke-linejoin="round"/>
<path d="M16.3999 26.3V29.1" stroke="black" stroke-width="2" stroke-linecap="round" stroke-linejoin="round"/>
<path d="M20.2 11.7C20.8628 11.7 21.4 11.1627 21.4 10.5C21.4 9.83726 20.8628 9.29999 20.2 9.29999C19.5373 9.29999 19 9.83726 19 10.5C19 11.1627 19.5373 11.7 20.2 11.7Z" fill="black"/>
<defs>
<linearGradient id="paint0_linear_20_759" x1="14.5" y1="22" x2="25.3754" y2="4.42291" gradientUnits="userSpaceOnUse">
<stop offset="0.181648" stop-color="#FF3358"/>
<stop offset="0.849774" stop-color="#FF7DAC" stop-opacity="0"/>
</linearGradient>
</defs>
</svg>
