<svg width="32" height="32" viewBox="0 0 32 32" fill="none" xmlns="http://www.w3.org/2000/svg">
<path d="M10.1 25.5219C12.0882 25.5219 13.7 23.9101 13.7 21.9219C13.7 19.9336 12.0882 18.3219 10.1 18.3219C8.11177 18.3219 6.5 19.9336 6.5 21.9219C6.5 23.9101 8.11177 25.5219 10.1 25.5219Z" fill="url(#paint0_linear_20_277)" stroke="black" stroke-width="2" stroke-linecap="round" stroke-linejoin="round"/>
<path d="M20.7703 21.4353L10.6587 11.3237L7.64643 14.336L17.758 24.4476L20.7703 21.4353Z" stroke="black" stroke-width="2" stroke-linecap="round" stroke-linejoin="round"/>
<path d="M21.3091 16.0312L15.9351 10.6572L12.9228 13.6694L18.2968 19.0434L21.3091 16.0312Z" fill="url(#paint1_linear_20_277)" stroke="black" stroke-width="2" stroke-linecap="round" stroke-linejoin="round"/>
<path d="M3 28.9219L7.6 24.4219" stroke="black" stroke-width="2" stroke-linecap="round" stroke-linejoin="round"/>
<path d="M18.6001 13.4219L22.2001 9.82187" stroke="black" stroke-width="2" stroke-linecap="round" stroke-linejoin="round"/>
<path d="M22.1998 9.82187C21.8707 9.5281 21.6375 9.14219 21.5305 8.71421C21.4235 8.28623 21.4477 7.83596 21.5998 7.42188L23.2998 3.42188C23.429 3.28085 23.5877 3.17009 23.7646 3.09745C23.9416 3.0248 24.1323 2.99207 24.3233 3.00162C24.5143 3.01117 24.7009 3.06276 24.8697 3.15268C25.0385 3.24261 25.1853 3.36868 25.2998 3.52189L28.4998 6.7219C28.6467 6.84389 28.7649 6.99673 28.846 7.16956C28.9271 7.34239 28.9692 7.53098 28.9692 7.7219C28.9692 7.91282 28.9271 8.10137 28.846 8.2742C28.7649 8.44704 28.6467 8.5999 28.4998 8.7219L24.5998 10.4219C24.1857 10.574 23.7355 10.5982 23.3075 10.4912C22.8795 10.3842 22.4936 10.151 22.1998 9.82187Z" fill="url(#paint2_linear_20_277)" stroke="black" stroke-width="2" stroke-linecap="round" stroke-linejoin="round"/>
<defs>
<linearGradient id="paint0_linear_20_277" x1="6.49505" y1="25.5303" x2="14.533" y2="19.405" gradientUnits="userSpaceOnUse">
<stop stop-color="#FF7DAC"/>
<stop offset="1" stop-color="#FF0440"/>
</linearGradient>
<linearGradient id="paint1_linear_20_277" x1="15.4853" y1="11.1443" x2="14.0584" y2="18.1875" gradientUnits="userSpaceOnUse">
<stop stop-color="#FFA654"/>
<stop offset="1" stop-color="#F26702"/>
</linearGradient>
<linearGradient id="paint2_linear_20_277" x1="21.4909" y1="4.17528" x2="29.0231" y2="10.4982" gradientUnits="userSpaceOnUse">
<stop stop-color="#FFA654"/>
<stop offset="1" stop-color="#F26702"/>
</linearGradient>
</defs>
</svg>
