<svg width="31" height="32" viewBox="0 0 31 32" fill="none" xmlns="http://www.w3.org/2000/svg">
<path d="M11.7583 17.0238L14.7282 19.9937L6.455 28.2668C6.26 28.4618 6.02849 28.6165 5.7737 28.7221C5.51892 28.8276 5.24585 28.8819 4.97007 28.8819C4.6943 28.8819 4.42125 28.8276 4.16646 28.722C3.91168 28.6165 3.68017 28.4618 3.48516 28.2668C3.09134 27.873 2.87007 27.3388 2.87007 26.7819C2.87007 26.2249 3.09132 25.6908 3.48514 25.297L11.7583 17.0238Z" fill="url(#paint0_linear_20_589)" stroke="black" stroke-width="2" stroke-linecap="round" stroke-linejoin="round"/>
<path d="M14.8413 19.9029C26.4413 16.7029 28.9413 12.2028 28.8413 9.00284C28.8413 7.41154 28.2092 5.88544 27.084 4.76023C25.9587 3.63501 24.4326 3.00284 22.8413 3.00284C19.5413 2.90284 15.1413 5.40284 11.8413 17.0028" stroke="black" stroke-width="2" stroke-linecap="round" stroke-linejoin="round"/>
<path d="M13.5415 18.3029C17.6415 9.20287 21.1415 5.10286 24.1415 4.10286C24.6402 3.92169 25.1812 3.89151 25.697 4.01601C26.2127 4.1405 26.6804 4.41416 27.0415 4.80287C27.4417 5.15597 27.7236 5.62366 27.8488 6.14247C27.974 6.66129 27.9366 7.20611 27.7415 7.7029C26.7415 10.7029 22.6415 14.2029 13.5415 18.3029Z" stroke="black" stroke-width="2" stroke-linecap="round" stroke-linejoin="round"/>
<defs>
<linearGradient id="paint0_linear_20_589" x1="10.251" y1="18.5518" x2="13.7908" y2="24.5439" gradientUnits="userSpaceOnUse">
<stop stop-color="#FFA654"/>
<stop offset="1" stop-color="#F26702"/>
</linearGradient>
</defs>
</svg>
