<svg width="32" height="32" viewBox="0 0 32 32" fill="none" xmlns="http://www.w3.org/2000/svg">
<path d="M13 19.7L23 8.10001H3L13 19.7L23 8.10001H3L13 19.7Z" fill="url(#paint0_linear_20_427)"/>
<path d="M13 19.7L23 8.10001H3L13 19.7ZM13 19.7L23 8.10001H3L13 19.7Z" stroke="black" stroke-width="2" stroke-linecap="round" stroke-linejoin="round"/>
<path d="M13 19.7V28.7" stroke="black" stroke-width="2" stroke-linecap="round" stroke-linejoin="round"/>
<path d="M6.3999 28.7H19.5999" stroke="black" stroke-width="2" stroke-linecap="round" stroke-linejoin="round"/>
<path d="M9.1001 14.8H16.9001" stroke="black" stroke-width="2" stroke-linecap="round" stroke-linejoin="round"/>
<path d="M17.8999 8.10001C17.8999 7.09133 18.199 6.1053 18.7594 5.26661C19.3198 4.42792 20.1163 3.77423 21.0482 3.38822C21.9801 3.00221 23.0056 2.90121 23.9949 3.098C24.9842 3.29478 25.8929 3.78053 26.6061 4.49378C27.3194 5.20703 27.8051 6.11574 28.0019 7.10505C28.1987 8.09435 28.0977 9.1198 27.7117 10.0517C27.3257 10.9836 26.672 11.7801 25.8333 12.3405C24.9946 12.9009 24.0086 13.2 22.9999 13.2C21.7761 13.194 20.599 12.7302 19.6999 11.9" stroke="black" stroke-width="2" stroke-linecap="round" stroke-linejoin="round"/>
<defs>
<linearGradient id="paint0_linear_20_427" x1="2.98626" y1="19.7136" x2="15.9319" y2="2.70441" gradientUnits="userSpaceOnUse">
<stop stop-color="#FF7DAC"/>
<stop offset="1" stop-color="#FF0440"/>
</linearGradient>
</defs>
</svg>
